<svg width="13" height="13" viewBox="0 0 13 13" fill="none" xmlns="http://www.w3.org/2000/svg">
<path d="M8.742 5.26015V3.61244C8.742 2.3991 7.75839 1.4155 6.54505 1.4155C5.33172 1.4155 4.34811 2.3991 4.34811 3.61244V5.26014M1.92708 6.00269L1.59754 9.5178C1.50384 10.5172 1.457 11.017 1.62283 11.4029C1.76852 11.742 2.02381 12.0224 2.34781 12.1991C2.71662 12.4002 3.21854 12.4002 4.22236 12.4002H8.86774C9.87157 12.4002 10.3735 12.4002 10.7423 12.1991C11.0663 12.0224 11.3216 11.742 11.4673 11.4029C11.6331 11.017 11.5863 10.5172 11.4926 9.5178L11.163 6.00269C11.0839 5.15873 11.0443 4.73674 10.8545 4.41771C10.6874 4.13673 10.4404 3.91183 10.1451 3.77163C9.8097 3.61244 9.38587 3.61244 8.5382 3.61244L4.5519 3.61244C3.70424 3.61244 3.2804 3.61244 2.94505 3.77163C2.64969 3.91183 2.40272 4.13673 2.23557 4.41771C2.04577 4.73674 2.00621 5.15873 1.92708 6.00269Z" stroke="#C11574" stroke-width="1.09847" stroke-linecap="round" stroke-linejoin="round"/>
</svg>
