<svg width="26" height="28" viewBox="0 0 26 28" fill="none" xmlns="http://www.w3.org/2000/svg">
<path d="M24.3902 5.05398H19.8416V3.53778C19.8416 2.59951 19.4689 1.69966 18.8054 1.03619C18.1419 0.37273 17.2421 0 16.3038 0H10.239C9.30075 0 8.4009 0.37273 7.73744 1.03619C7.07398 1.69966 6.70125 2.59951 6.70125 3.53778V5.05398H2.15267C1.75055 5.05398 1.3649 5.21372 1.08056 5.49806C0.796216 5.7824 0.636475 6.16805 0.636475 6.57017C0.636475 6.97229 0.796216 7.35794 1.08056 7.64228C1.3649 7.92662 1.75055 8.08636 2.15267 8.08636H2.65807V25.2699C2.65807 25.9401 2.9243 26.5828 3.3982 27.0567C3.87211 27.5306 4.51486 27.7969 5.18505 27.7969H21.3578C22.028 27.7969 22.6707 27.5306 23.1446 27.0567C23.6185 26.5828 23.8848 25.9401 23.8848 25.2699V8.08636H24.3902C24.7923 8.08636 25.1779 7.92662 25.4623 7.64228C25.7466 7.35794 25.9064 6.97229 25.9064 6.57017C25.9064 6.16805 25.7466 5.7824 25.4623 5.49806C25.1779 5.21372 24.7923 5.05398 24.3902 5.05398ZM9.73363 3.53778C9.73363 3.40374 9.78688 3.27519 9.88166 3.18041C9.97644 3.08563 10.105 3.03239 10.239 3.03239H16.3038C16.4378 3.03239 16.5664 3.08563 16.6612 3.18041C16.756 3.27519 16.8092 3.40374 16.8092 3.53778V5.05398H9.73363V3.53778ZM20.8524 24.7645H5.69045V8.08636H20.8524V24.7645ZM11.7552 12.1295V20.2159C11.7552 20.618 11.5955 21.0037 11.3111 21.288C11.0268 21.5724 10.6412 21.7321 10.239 21.7321C9.83691 21.7321 9.45126 21.5724 9.16692 21.288C8.88258 21.0037 8.72284 20.618 8.72284 20.2159V12.1295C8.72284 11.7274 8.88258 11.3418 9.16692 11.0574C9.45126 10.7731 9.83691 10.6134 10.239 10.6134C10.6412 10.6134 11.0268 10.7731 11.3111 11.0574C11.5955 11.3418 11.7552 11.7274 11.7552 12.1295ZM17.82 12.1295V20.2159C17.82 20.618 17.6603 21.0037 17.3759 21.288C17.0916 21.5724 16.7059 21.7321 16.3038 21.7321C15.9017 21.7321 15.516 21.5724 15.2317 21.288C14.9474 21.0037 14.7876 20.618 14.7876 20.2159V12.1295C14.7876 11.7274 14.9474 11.3418 15.2317 11.0574C15.516 10.7731 15.9017 10.6134 16.3038 10.6134C16.7059 10.6134 17.0916 10.7731 17.3759 11.0574C17.6603 11.3418 17.82 11.7274 17.82 12.1295Z" fill="#444343"/>
</svg>
