<svg width="56" height="51" viewBox="0 0 56 51" fill="none" xmlns="http://www.w3.org/2000/svg">
<path d="M17.1016 0.191406V50.2704H26.1857V0.191406H17.1016ZM0.330933 5.78162V27.9095H5.68822V5.78162H0.330933ZM18.7321 8.46026H20.8284V45.7284H18.7321V8.46026ZM33.7237 9.35586L28.4508 10.302L35.6511 50.4231L40.924 49.4769L33.7237 9.35586ZM7.78455 11.3718V42.8168H15.0052V11.3718H7.78455ZM40.5691 14.712L37.3554 16.0831L37.9952 17.5828L41.2089 16.2117L40.5691 14.712ZM42.0318 18.1398L38.8178 19.5108L39.4577 21.0105L42.6712 19.6395L42.0316 18.1398H42.0318ZM43.494 21.5678L40.2803 22.9386L51.8887 50.1475L55.1023 48.7764L43.4941 21.5678H43.494ZM0.330933 30.0059V33.4998H5.68822V30.0059H0.330933ZM22.4589 30.8211H24.5552V45.7284H22.4589V30.8211ZM0.330933 35.5961V50.2704H5.68822V35.5961H0.330933ZM7.78455 44.9131V50.2704H15.0052V44.9131H7.78455Z" fill="#911DED"/>
</svg>
