<svg width="13" height="13" viewBox="0 0 13 13" fill="none" xmlns="http://www.w3.org/2000/svg">
<path d="M1.05249 0.778442H1.76988C1.905 0.778442 1.97256 0.778442 2.02693 0.80329C2.07485 0.825187 2.11545 0.860402 2.1439 0.904737C2.17619 0.955046 2.18575 1.02193 2.20485 1.15569L2.46481 2.97538M2.46481 2.97538L3.04255 7.22174C3.11586 7.76061 3.15252 8.03005 3.28134 8.23286C3.39486 8.41157 3.5576 8.55367 3.74998 8.64205C3.96831 8.74236 4.24022 8.74236 4.78406 8.74236H9.48435C10.002 8.74236 10.2609 8.74236 10.4724 8.64922C10.6589 8.56709 10.8189 8.4347 10.9345 8.26684C11.0656 8.07647 11.114 7.8222 11.2109 7.31366L11.9378 3.49699C11.9719 3.318 11.989 3.22851 11.9643 3.15855C11.9426 3.09719 11.8998 3.04551 11.8436 3.01274C11.7795 2.97538 11.6884 2.97538 11.5062 2.97538H2.46481ZM5.44637 11.2139C5.44637 11.5173 5.20047 11.7632 4.89714 11.7632C4.5938 11.7632 4.3479 11.5173 4.3479 11.2139C4.3479 10.9106 4.5938 10.6647 4.89714 10.6647C5.20047 10.6647 5.44637 10.9106 5.44637 11.2139ZM9.84026 11.2139C9.84026 11.5173 9.59436 11.7632 9.29102 11.7632C8.98769 11.7632 8.74179 11.5173 8.74179 11.2139C8.74179 10.9106 8.98769 10.6647 9.29102 10.6647C9.59436 10.6647 9.84026 10.9106 9.84026 11.2139Z" stroke="#3538CD" stroke-width="1.09847" stroke-linecap="round" stroke-linejoin="round"/>
</svg>
