<svg width="24" height="24" viewBox="0 0 24 24" fill="none" xmlns="http://www.w3.org/2000/svg">
<path d="M0.301165 17.9597C0.171165 17.5988 -0.220835 16.3549 0.168165 15.3784L9.99516 21.4007C10.0453 21.4315 10.1022 21.4478 10.1602 21.4478C10.2181 21.4478 10.275 21.4315 10.3252 21.4007L24.0002 13.0211V15.5195L10.1602 24L0.301165 17.9597ZM0.191165 8.77658C-0.0968355 9.70741 0.206165 10.9609 0.315165 11.3515L10.1602 17.3844L24.0002 8.90394V6.40226L10.3252 14.7829C10.275 14.8138 10.2181 14.83 10.1602 14.83C10.1022 14.83 10.0453 14.8138 9.99516 14.7829L0.190165 8.77658H0.191165ZM13.3612 6.72174C13.3168 6.74837 13.2672 6.76378 13.2163 6.76677C13.1653 6.76977 13.1144 6.76028 13.0675 6.73903C13.0206 6.71778 12.979 6.68535 12.9458 6.64425C12.9126 6.60315 12.8888 6.55449 12.8762 6.50203L12.5962 5.29949L10.4702 5.11268C10.4003 5.10636 10.3341 5.07657 10.2812 5.02762C10.2284 4.97868 10.1916 4.91313 10.1762 4.8405C10.1608 4.76786 10.1677 4.69191 10.1957 4.62367C10.2237 4.55543 10.2715 4.49845 10.3322 4.46099L15.9102 1.04334L14.2082 0L0.698165 8.27879L10.1602 14.0761L23.6702 5.79728L19.2702 3.10136L13.3602 6.72068L13.3612 6.72174ZM13.1792 4.88661L13.4112 5.88219L18.6092 2.69698L16.5692 1.44667L11.5762 4.50769L12.8862 4.62232C12.955 4.62842 13.0204 4.65731 13.0729 4.70492C13.1255 4.75253 13.1627 4.81539 13.1792 4.88661ZM24.0002 9.71272L10.3252 18.0923C10.275 18.1232 10.2181 18.1394 10.1602 18.1394C10.1022 18.1394 10.0453 18.1232 9.99516 18.0923L0.168165 12.0711C-0.221835 13.0465 0.171165 14.2905 0.301165 14.6503L10.1602 20.6927L24.0002 12.2123V9.71166V9.71272Z" fill="#444343"/>
</svg>
