<svg width="13" height="16" viewBox="0 0 13 16" fill="none" xmlns="http://www.w3.org/2000/svg">
<path fill-rule="evenodd" clip-rule="evenodd" d="M1.63144 13.6423H12.2421C12.4431 13.6423 12.6359 13.7221 12.778 13.8643C12.9202 14.0064 13 14.1992 13 14.4002C13 14.6012 12.9202 14.794 12.778 14.9361C12.6359 15.0783 12.4431 15.1581 12.2421 15.1581H1.63144C1.43043 15.1581 1.23766 15.0783 1.09552 14.9361C0.953386 14.794 0.873535 14.6012 0.873535 14.4002C0.873535 14.1992 0.953386 14.0064 1.09552 13.8643C1.23766 13.7221 1.43043 13.6423 1.63144 13.6423ZM0.873535 9.85277L8.45259 2.27372L10.7263 4.54743L3.14725 12.1265H0.873535V9.85277ZM9.21049 1.51581L10.7263 0L13 2.27372L11.4834 3.79028L9.21049 1.51581Z" fill="#B569F1"/>
</svg>
