<svg width="41" height="40" viewBox="0 0 41 40" fill="none" xmlns="http://www.w3.org/2000/svg">
<path fill-rule="evenodd" clip-rule="evenodd" d="M20.5 3.75C11.5259 3.75 4.25 11.0259 4.25 20C4.25 28.9741 11.5259 36.25 20.5 36.25C29.4741 36.25 36.75 28.9741 36.75 20C36.75 18.9133 36.6386 17.7879 36.4344 16.7571C36.3185 16.1718 35.805 15.75 35.2082 15.75H20.5C19.8096 15.75 19.25 16.3096 19.25 17V23C19.25 23.6904 19.8096 24.25 20.5 24.25H26.9713C26.503 24.9634 25.9206 25.5947 25.2503 26.1177C25.2406 26.1238 25.2309 26.13 25.2213 26.1364L25.2191 26.1379L25.2208 26.1406C23.9144 27.1499 22.2775 27.75 20.5 27.75C16.2201 27.75 12.75 24.2799 12.75 20C12.75 15.7201 16.2201 12.25 20.5 12.25C22.4728 12.25 24.268 12.9928 25.6399 14.2132C26.1346 14.6532 26.8865 14.6313 27.3546 14.1631L31.5974 9.92038C31.8372 9.68057 31.9693 9.3536 31.9633 9.0145C31.9573 8.6754 31.8138 8.35329 31.5657 8.12206C28.6673 5.42077 24.7832 3.75 20.5 3.75ZM25.8367 28.7486C24.2842 29.7006 22.4577 30.25 20.5 30.25C16.6533 30.25 13.3012 28.1306 11.548 24.9959L8.75282 27.1495C11.167 31.1074 15.5251 33.75 20.5 33.75C23.5353 33.75 26.3411 32.7663 28.6158 31.1003L25.8367 28.7486ZM30.509 29.4274C32.8285 26.9658 34.25 23.6488 34.25 20C34.25 19.4208 34.2125 18.8267 34.1421 18.25H21.75V21.75H28.9773C29.3831 21.75 29.7638 21.9471 29.998 22.2786C30.2323 22.61 30.291 23.0346 30.1556 23.4172C29.6548 24.8315 28.8531 26.1045 27.8269 27.1577L30.509 29.4274ZM8.86597 12.6682C11.3016 8.81167 15.6019 6.25 20.5 6.25C23.6529 6.25 26.5509 7.31938 28.8715 9.11073L26.3727 11.6095C24.7121 10.442 22.6888 9.75 20.5 9.75C16.7602 9.75 13.488 11.7532 11.6979 14.7451L8.86597 12.6682ZM7.71678 14.9257C7.09294 16.4957 6.75 18.2078 6.75 20C6.75 21.7097 7.06211 23.3466 7.63246 24.8567L10.5791 22.5864C10.3643 21.7602 10.25 20.8934 10.25 20C10.25 18.9894 10.3963 18.0129 10.6688 17.0906L7.71678 14.9257Z" fill="black"/>
</svg>
