<svg width="41" height="40" viewBox="0 0 41 40" fill="none" xmlns="http://www.w3.org/2000/svg">
<path d="M27.1671 11.6666C27.1671 10.7462 27.9133 9.99997 28.8338 9.99997C29.7543 9.99997 30.5005 10.7462 30.5005 11.6666C30.5005 12.5871 29.7543 13.3333 28.8338 13.3333C27.9133 13.3333 27.1671 12.5871 27.1671 11.6666Z" fill="black"/>
<path fill-rule="evenodd" clip-rule="evenodd" d="M20.5005 12.0833C16.1282 12.0833 12.5838 15.6277 12.5838 20C12.5838 24.3722 16.1282 27.9166 20.5005 27.9166C24.8727 27.9166 28.4171 24.3722 28.4171 20C28.4171 15.6277 24.8727 12.0833 20.5005 12.0833ZM15.0838 20C15.0838 17.0084 17.5089 14.5833 20.5005 14.5833C23.492 14.5833 25.9171 17.0084 25.9171 20C25.9171 22.9915 23.492 25.4166 20.5005 25.4166C17.5089 25.4166 15.0838 22.9915 15.0838 20Z" fill="black"/>
<path fill-rule="evenodd" clip-rule="evenodd" d="M29.2642 4.72167C23.4866 4.07593 17.5144 4.07593 11.7368 4.72167C8.38332 5.09646 5.6761 7.73815 5.28184 11.109C4.59095 17.0162 4.59095 22.9838 5.28184 28.8909C5.6761 32.2618 8.38332 34.9035 11.7368 35.2783C17.5144 35.924 23.4866 35.924 29.2642 35.2783C32.6176 34.9035 35.3249 32.2618 35.7191 28.8909C36.41 22.9838 36.41 17.0162 35.7191 11.109C35.3249 7.73815 32.6177 5.09646 29.2642 4.72167ZM12.0144 7.2062C17.6075 6.58109 23.3935 6.58109 28.9865 7.2062C31.2034 7.45396 32.9792 9.20332 33.2361 11.3994C33.9044 17.1137 33.9044 22.8863 33.2361 28.6005C32.9792 30.7966 31.2034 32.546 28.9865 32.7937C23.3935 33.4189 17.6075 33.4189 12.0144 32.7937C9.79759 32.546 8.02178 30.7966 7.76492 28.6005C7.09659 22.8863 7.09659 17.1137 7.76492 11.3994C8.02178 9.20332 9.79759 7.45396 12.0144 7.2062Z" fill="black"/>
</svg>
