<svg width="77" height="77" viewBox="0 0 77 77" fill="none" xmlns="http://www.w3.org/2000/svg">
<g clip-path="url(#clip0_61_741)">
<path d="M11.6862 70.8926V76.7985H63.7224V70.8926C63.7224 61.8338 50.9492 57.2357 37.9013 57.2536C24.9311 57.2715 11.6862 61.3023 11.6862 70.8926Z" fill="#424242"/>
<path d="M37.7042 54.2678H32.282V59.9946C32.282 62.5862 34.4915 64.6882 37.2145 64.6882H38.1998C40.9228 64.6882 43.1323 62.5862 43.1323 59.9946V54.2678H37.7042Z" fill="#563E37"/>
<path d="M43.5803 76.8104H31.8282V57.5223L37.7043 64.6882L43.5803 57.5223V76.8104Z" fill="#424242"/>
<path d="M56.9565 31.6296C56.9565 31.6296 60.4738 32.2387 60.4738 36.0306C60.4738 39.3747 57.906 40.6944 55.3382 40.6944V31.6296H56.9565ZM18.5713 31.6296C18.5713 31.6296 15.0541 32.2387 15.0541 36.0306C15.0541 39.3747 17.6218 40.6944 20.1896 40.6944V31.6296H18.5713Z" fill="#563E37"/>
<path d="M37.764 6.80579C22.5962 6.80579 18.6311 18.5638 18.6311 35.0811C18.6311 52.2076 29.6367 56.6385 37.764 56.6385C45.7719 56.6385 56.8969 52.339 56.8969 35.0811C56.9029 18.5638 52.9318 6.80579 37.764 6.80579Z" fill="#70534A"/>
<path d="M31.4639 36.6159C31.4639 38.3237 30.3234 39.7032 28.9081 39.7032C27.4988 39.7032 26.3463 38.3177 26.3463 36.6159C26.3463 34.908 27.4929 33.5226 28.9081 33.5226C30.3234 33.5226 31.4639 34.902 31.4639 36.6159ZM44.0639 36.6159C44.0639 38.3237 45.2045 39.7032 46.6257 39.7032C48.035 39.7032 49.1816 38.3177 49.1816 36.6159C49.1816 34.908 48.035 33.5226 46.6257 33.5226C45.2045 33.5226 44.0639 34.902 44.0639 36.6159ZM43.3056 47.0482H32.2343C31.6013 47.0482 31.3266 47.4722 31.7446 48.1171C32.3298 49.0128 34.5154 50.7326 37.7699 50.7326C41.0244 50.7326 43.21 49.0128 43.7952 48.1171C44.2132 47.4722 43.9385 47.0482 43.3056 47.0482Z" fill="#232020"/>
<path d="M40.4391 42.3426C39.4956 42.6113 38.5163 42.7367 37.7639 42.7367C37.0115 42.7367 36.0321 42.6053 35.0886 42.3426C34.6885 42.2291 34.5273 42.6113 34.6706 42.8621C34.9692 43.3876 36.1754 44.4506 37.7639 44.4506C39.3523 44.4506 40.5586 43.3876 40.8572 42.8621C41.0005 42.6053 40.8452 42.2232 40.4391 42.3426Z" fill="#563E37"/>
<path d="M38.2238 4.65004C38.2238 4.65004 37.9252 4.6381 37.7998 4.64407C37.6744 4.64407 37.3758 4.65004 37.3758 4.65004C21.0078 4.96653 16.0753 14.8136 16.0753 21.6391C16.0753 28.2735 16.0812 33.1523 16.0812 33.1523C16.0812 33.1523 16.344 32.8836 16.8217 32.5074C17.3353 32.1073 17.9026 31.8863 17.9026 31.8863L18.7266 37.428L24.1787 26.0342C24.2145 25.9626 24.2862 25.9207 24.3638 25.9327L27.5944 26.291C30.8429 26.6493 34.1094 26.8284 37.3699 26.8344V26.8404C37.5132 26.8404 37.6505 26.8344 37.7938 26.8344C37.9371 26.8344 38.0745 26.8404 38.2178 26.8404V26.8284C41.4783 26.8165 44.7447 26.6433 47.9933 26.285L51.2239 25.9267C51.3015 25.9207 51.3732 25.9625 51.409 26.0282L56.861 37.422L57.6851 31.8804C57.6851 31.8804 58.2524 32.1073 58.766 32.5014C59.2497 32.8776 59.5064 33.1463 59.5064 33.1463C59.5064 33.1463 59.5124 28.2735 59.5124 21.6332C59.5243 14.8136 54.5918 4.96653 38.2238 4.65004Z" fill="#232020"/>
<path d="M37.7222 0.37439L7.94794 5.88017L37.7998 0.386333L37.7222 0.37439Z" fill="#262626"/>
<path d="M37.8893 0.380361L37.8714 0.37439L37.7997 0.386333L37.8893 0.404247V0.380361Z" fill="#424143"/>
<path d="M38.0566 0.37439L67.8368 5.88017L37.9849 0.386333L38.0566 0.37439Z" fill="#262626"/>
<path d="M67.8487 7.3969L67.8368 5.88013L37.9133 10.2155H37.8775L7.94798 5.88013L7.93604 7.3969L19.921 9.49292L18.8939 12.3951C21.0914 13.3625 29.0515 16.5752 37.8894 16.8081C46.7273 16.5692 54.4067 13.3625 56.6043 12.3951L55.5772 9.49292L67.8487 7.3969Z" fill="#262626"/>
<path d="M37.8894 0.380361L37.9133 0.37439L37.9849 0.386333L37.8894 0.404247V0.380361Z" fill="#424143"/>
<path d="M37.9849 0.386353L37.8894 0.404267L37.7998 0.386353L7.94794 5.88019L37.8714 10.2155L37.8894 10.2096L37.9132 10.2155L67.8368 5.88019L37.9849 0.386353Z" fill="#424143"/>
<path d="M68.3801 27.7839C67.777 27.7839 67.2933 28.2735 67.2933 28.8707V33.5464C67.2933 33.8347 67.4078 34.1111 67.6116 34.3149C67.8154 34.5188 68.0919 34.6333 68.3801 34.6333C68.6683 34.6333 68.9448 34.5188 69.1486 34.3149C69.3524 34.1111 69.4669 33.8347 69.4669 33.5464V28.8707C69.4669 28.2735 68.9832 27.7839 68.3801 27.7839ZM66.2065 27.7839C65.6033 27.7839 65.1196 28.2735 65.1196 28.8707V33.5464C65.1196 33.8347 65.2341 34.1111 65.438 34.3149C65.6418 34.5188 65.9182 34.6333 66.2065 34.6333C66.4947 34.6333 66.7711 34.5188 66.975 34.3149C67.1788 34.1111 67.2933 33.8347 67.2933 33.5464V28.8707C67.2933 28.2735 66.8096 27.7839 66.2065 27.7839Z" fill="#FBC11B"/>
<path d="M66.8992 27.7839C66.2961 27.7839 65.8124 28.2735 65.8124 28.8707V33.5464C65.8124 33.8347 65.9269 34.1111 66.1307 34.3149C66.3345 34.5188 66.611 34.6333 66.8992 34.6333C67.1874 34.6333 67.4639 34.5188 67.6677 34.3149C67.8715 34.1111 67.986 33.8347 67.986 33.5464V28.8707C67.986 28.2735 67.5023 27.7839 66.8992 27.7839Z" fill="#E49500"/>
<path d="M67.7293 27.7839C67.1262 27.7839 66.6425 28.2735 66.6425 28.8707V33.5464C66.6425 34.1496 67.1321 34.6333 67.7293 34.6333C68.3264 34.6333 68.8161 34.1436 68.8161 33.5464V28.8707C68.8161 28.2735 68.3324 27.7839 67.7293 27.7839Z" fill="#E49500"/>
<path d="M67.2934 27.7839C66.6902 27.7839 66.2065 28.2735 66.2065 28.8707V34.5556C66.2065 34.8439 66.321 35.1203 66.5249 35.3241C66.7287 35.5279 67.0051 35.6425 67.2934 35.6425C67.5816 35.6425 67.858 35.5279 68.0619 35.3241C68.2657 35.1203 68.3802 34.8439 68.3802 34.5556V28.8707C68.3802 28.2735 67.8965 27.7839 67.2934 27.7839Z" fill="#FBC11B"/>
<path d="M67.2933 28.7035C67.9727 28.7035 68.5235 28.1528 68.5235 27.4734C68.5235 26.794 67.9727 26.2432 67.2933 26.2432C66.6139 26.2432 66.0632 26.794 66.0632 27.4734C66.0632 28.1528 66.6139 28.7035 67.2933 28.7035Z" fill="#E49500"/>
<path d="M67.2933 28.387C67.9727 28.387 68.5235 27.8362 68.5235 27.1568C68.5235 26.4774 67.9727 25.9267 67.2933 25.9267C66.6139 25.9267 66.0632 26.4774 66.0632 27.1568C66.0632 27.8362 66.6139 28.387 67.2933 28.387Z" fill="#FBC11B"/>
<path d="M66.7559 6.01758V26.8882H66.7679C66.7917 27.1629 67.0187 27.3838 67.2993 27.3838C67.58 27.3838 67.8069 27.1689 67.8308 26.8882H67.8427V6.01758H66.7559Z" fill="#262626"/>
</g>
<defs>
<clipPath id="clip0_61_741">
<rect width="76.436" height="76.436" fill="white" transform="translate(0.483459 0.37439)"/>
</clipPath>
</defs>
</svg>
