<svg width="77" height="77" viewBox="0 0 77 77" fill="none" xmlns="http://www.w3.org/2000/svg">
<g clip-path="url(#clip0_61_712)">
<path d="M1.49292 1.49286H74.9432V51.8511H1.49292V1.49286Z" fill="#26A69A"/>
<path d="M73.4502 2.98578V50.3582H2.98578V2.98578H73.4502ZM76.436 0H0V53.344H76.436V0Z" fill="#5D4037"/>
<path d="M4.77728 70.4824V76.436H56.8135V70.4824C56.8135 61.4235 44.0403 56.8254 30.9925 56.8433C18.0282 56.8553 4.77728 60.8861 4.77728 70.4824Z" fill="#546E7A"/>
<path d="M26.7466 62.8268H34.8978L30.7297 80.3474L26.7466 62.8268Z" fill="#455A64"/>
<path d="M30.7655 53.8516H25.3433V59.5783C25.3433 62.1699 27.5528 64.2719 30.2758 64.2719H31.2611C33.9842 64.2719 36.1937 62.1699 36.1937 59.5783V53.8516H30.7655Z" fill="#E49500"/>
<path d="M50.0178 31.1357C50.0178 31.1357 53.5351 31.7448 53.5351 35.5368C53.5351 38.8809 50.9673 40.2006 48.3995 40.2006V31.1357H50.0178ZM11.6326 31.1357C11.6326 31.1357 8.11536 31.7448 8.11536 35.5368C8.11536 38.8809 10.6831 40.2006 13.2509 40.2006V31.1357H11.6326Z" fill="#E39400"/>
<path d="M30.8252 6.31189C15.6574 6.31189 11.6923 18.0699 11.6923 34.5872C11.6923 51.7137 22.6979 56.1446 30.8252 56.1446C38.8331 56.1446 49.9581 51.8451 49.9581 34.5872C49.9581 18.0699 45.987 6.31189 30.8252 6.31189Z" fill="#FAC01B"/>
<path d="M24.5192 36.122C24.5192 37.8298 23.3787 39.2093 21.9634 39.2093C20.5541 39.2093 19.4016 37.8239 19.4016 36.122C19.4016 34.4141 20.5481 33.0287 21.9634 33.0287C23.3787 33.0287 24.5192 34.4081 24.5192 36.122ZM37.1192 36.122C37.1192 37.8298 38.2598 39.2093 39.681 39.2093C41.0903 39.2093 42.2369 37.8239 42.2369 36.122C42.2369 34.4141 41.0903 33.0287 39.681 33.0287C38.2658 33.0287 37.1192 34.4081 37.1192 36.122Z" fill="#444444"/>
<path d="M36.3608 46.5543H25.2896C24.6566 46.5543 24.3819 46.9783 24.7999 47.6232C25.3851 48.519 27.5707 50.2388 30.8252 50.2388C34.0797 50.2388 36.2653 48.519 36.8505 47.6232C37.2685 46.9783 36.9938 46.5543 36.3608 46.5543Z" fill="#513F35"/>
<path d="M33.5005 41.8487C32.557 42.1174 31.5776 42.2428 30.8252 42.2428C30.0728 42.2428 29.0935 42.1114 28.15 41.8487C27.7499 41.7352 27.5886 42.1174 27.732 42.3682C28.0305 42.8937 29.2368 43.9567 30.8252 43.9567C32.4137 43.9567 33.6199 42.8937 33.9185 42.3682C34.0618 42.1114 33.9006 41.7293 33.5005 41.8487Z" fill="#E39400"/>
<path d="M31.2791 4.1562C31.2791 4.1562 30.9805 4.14426 30.8551 4.15023C30.7297 4.15023 30.4311 4.1562 30.4311 4.1562C14.0631 4.4727 9.13055 14.3198 9.13055 21.1453C9.13055 27.7797 9.13653 32.6585 9.13653 32.6585C9.13653 32.6585 9.39928 32.3898 9.877 32.0135C10.3906 31.6135 10.9579 31.3925 10.9579 31.3925L11.7819 36.9341L17.234 25.5404C17.2698 25.4687 17.3415 25.4269 17.4191 25.4389L20.6497 25.7972C23.8982 26.1554 27.1647 26.3346 30.4252 26.3406V26.3465C30.5685 26.3465 30.7058 26.3406 30.8491 26.3406C30.9924 26.3406 31.1298 26.3465 31.2731 26.3465V26.3346C34.5336 26.3226 37.8 26.1495 41.0486 25.7912L44.2792 25.4329C44.3568 25.4269 44.4285 25.4687 44.4643 25.5344L49.9163 36.9281L50.7404 31.3865C50.7404 31.3865 51.3077 31.6135 51.8213 32.0076C52.305 32.3838 52.5617 32.6525 52.5617 32.6525C52.5617 32.6525 52.5677 27.7797 52.5677 21.1393C52.5797 14.3198 47.6471 4.4727 31.2791 4.1562Z" fill="#6D4C41"/>
<path d="M24.5253 36.2235C24.5253 37.9194 23.3907 39.2988 21.9814 39.2988C20.5781 39.2988 19.4315 37.9254 19.4315 36.2235C19.4315 34.5216 20.5721 33.1481 21.9814 33.1481C23.3907 33.1481 24.5253 34.5216 24.5253 36.2235ZM37.0655 36.2235C37.0655 37.9194 38.2001 39.2988 39.6154 39.2988C41.0187 39.2988 42.1593 37.9254 42.1593 36.2235C42.1593 34.5216 41.0187 33.1481 39.6154 33.1481C38.2001 33.1481 37.0655 34.5216 37.0655 36.2235Z" fill="#444444"/>
<path d="M18.7806 68.3684L23.4444 64.678L17.8848 62.4685L25.2776 56.6223L30.7297 80.3473L18.7806 68.3684ZM38.1105 64.6063L42.8699 68.3684L30.7297 80.3473L36.3728 56.6223L43.7656 62.4685L38.1105 64.6063Z" fill="#E0E0E0"/>
<path d="M24.2207 30.5565H17.1444C16.9414 30.5565 16.7383 30.5744 16.5413 30.5983C17.007 30.6759 17.4071 30.9267 17.6699 31.273H24.2147C26.2749 31.273 27.9529 32.8257 27.9529 34.7366V38.1344C27.9529 40.0453 26.2749 41.5979 24.2147 41.5979H17.1444C15.0842 41.5979 13.4062 40.0453 13.4062 38.1344V35.2143H12.8807C12.7971 35.2143 12.7135 35.2023 12.6299 35.1904V38.1344C12.6299 40.4394 14.6542 42.3145 17.1384 42.3145H24.2147C26.6989 42.3145 28.7232 40.4394 28.7232 38.1344V34.7366C28.7292 32.4315 26.7049 30.5565 24.2207 30.5565Z" fill="#231F20" stroke="#231F20" stroke-width="0.287232" stroke-miterlimit="10"/>
<path d="M16.5412 30.5983C16.4337 30.5804 16.3262 30.5684 16.2188 30.5684H12.8807C11.9013 30.5684 11.0952 31.3089 11.0952 32.2225V33.5661C11.0952 34.3962 11.764 35.0829 12.6298 35.1964V34.7425C12.6298 32.6226 14.3377 30.873 16.5412 30.5983Z" fill="black"/>
<path d="M13.4062 35.2143V34.7366C13.4062 32.8257 15.0842 31.2731 17.1444 31.2731H17.6759C17.4131 30.9267 17.013 30.6759 16.5472 30.5983C14.3437 30.873 12.6359 32.6226 12.6359 34.7366V35.1904C12.7195 35.2023 12.7971 35.2143 12.8867 35.2143H13.4062Z" fill="black" stroke="black" stroke-width="0.287232" stroke-miterlimit="10"/>
<path d="M37.1432 30.5565H44.2195C44.4225 30.5565 44.6255 30.5744 44.8226 30.5983C44.3568 30.6759 43.9567 30.9267 43.694 31.273H37.1432C35.083 31.273 33.405 32.8257 33.405 34.7366V38.1344C33.405 40.0453 35.083 41.5979 37.1432 41.5979H44.2195C46.2797 41.5979 47.9577 40.0453 47.9577 38.1344V35.2143H48.4832C48.5668 35.2143 48.6504 35.2023 48.734 35.1904V38.1344C48.734 40.4394 46.7096 42.3145 44.2254 42.3145H37.1432C34.659 42.3145 32.6346 40.4394 32.6346 38.1344V34.7366C32.6346 32.4315 34.653 30.5565 37.1432 30.5565Z" fill="#231F20" stroke="#231F20" stroke-width="0.287232" stroke-miterlimit="10"/>
<path d="M44.8226 30.5983C44.9301 30.5804 45.0376 30.5684 45.1451 30.5684H48.4832C49.4625 30.5684 50.2687 31.3089 50.2687 32.2225V33.5661C50.2687 34.3962 49.5999 35.0829 48.734 35.1964V34.7425C48.728 32.6226 47.0261 30.873 44.8226 30.5983Z" fill="black"/>
<path d="M47.9577 35.2143V34.7366C47.9577 32.8257 46.2796 31.2731 44.2195 31.2731H43.688C43.9507 30.9267 44.3508 30.6759 44.8166 30.5983C47.0201 30.873 48.728 32.6226 48.728 34.7366V35.1904C48.6444 35.2023 48.5668 35.2143 48.4772 35.2143H47.9577Z" fill="black" stroke="black" stroke-width="0.287232" stroke-miterlimit="10"/>
<path d="M33.0646 35.2143H28.1918L27.5349 32.0792H33.7812L33.0646 35.2143Z" fill="#231F20"/>
<path d="M63.209 69.3597L61.2623 68.9835L69.8315 28.4783H70.5779L63.209 69.3597Z" fill="#F15A29"/>
<path d="M60.7129 64.3137C61.6086 64.5346 62.1819 65.1676 62.582 65.9559C63.5792 65.7767 65.299 65.5976 65.8006 65.6095C66.3918 65.6274 67.1741 65.6931 67.3055 66.9053C67.3891 67.6936 67.0905 68.3445 66.0813 68.44C65.7051 68.4759 65.3169 68.4997 64.9348 68.5177L65.0721 68.9596C65.4244 68.9536 65.7409 68.9416 65.9858 68.9416C67.0069 68.9297 67.5861 69.4731 67.5861 70.554C67.5861 71.5034 66.768 71.9513 66.1709 71.9871C65.8544 72.0051 64.9706 71.9573 64.0987 71.8737L64.0092 72.0588L63.9733 72.1125C64.5227 72.1961 65.0482 72.2857 65.4185 72.3514C66.4157 72.5306 66.8934 73.1934 66.78 73.9816C66.6426 74.9371 65.7887 75.1998 65.1975 75.1819C64.7556 75.17 63.203 74.9252 62.164 74.7042L61.9609 74.9968C62.0326 75.0088 62.1102 75.0207 62.1938 75.0326C62.2058 75.0326 62.2177 75.0386 62.2356 75.0386L62.4446 75.0744C62.4625 75.0744 62.4745 75.0804 62.4924 75.0804C62.576 75.0924 62.6596 75.1103 62.7432 75.1222H62.7551C62.8447 75.1342 62.9343 75.1521 63.0239 75.17C63.0418 75.17 63.0597 75.176 63.0716 75.176L63.2806 75.2118C63.3105 75.2178 63.3344 75.2237 63.3642 75.2237C63.424 75.2357 63.4837 75.2476 63.5374 75.2536L63.627 75.2715C63.6867 75.2834 63.7405 75.2954 63.7942 75.3014L63.8778 75.3193C63.9554 75.3372 64.039 75.3491 64.1107 75.367C65.0243 75.5581 65.3707 75.9702 65.2572 76.6927C65.102 77.7079 64.0808 77.9348 63.5374 77.8811C62.994 77.8333 61.1667 77.4571 60.5696 77.1943L60.4621 77.1406L60.2531 77.4392C57.5659 77.26 55.637 76.1374 55.637 76.1374C54.0605 75.2536 53.7978 74.5728 53.5351 73.492C53.2365 72.2618 53.3081 70.8048 53.3201 70.5779C53.4156 68.1295 53.959 66.547 55.9356 65.2333C56.4133 64.9168 57.112 64.3615 58.6587 64.1823C59.2618 64.1226 60.1157 64.1704 60.7129 64.3137Z" fill="#FBC11B"/>
<path d="M62.9522 68.3804C62.9522 68.3804 62.9761 67.1502 62.588 65.9559L63.0179 65.8783C63.0179 65.8783 63.3225 66.7263 63.43 67.9803C63.4479 68.1833 63.4538 68.3684 63.4538 68.5476L63.836 68.5237L66.3978 68.3804C66.3978 68.3804 66.2067 68.4162 66.2067 68.7028C66.2067 68.8223 66.2784 68.8999 66.3321 68.9477C66.2246 68.9357 66.1052 68.9238 65.9858 68.9298L63.4419 68.9955C63.4359 69.0671 63.4359 69.1388 63.43 69.2164C63.3702 70.2555 63.1254 71.2527 62.5462 71.6349C64.469 71.8618 66.1769 71.9753 66.1769 71.9753C65.8425 72.1126 65.9858 72.5187 65.9858 72.5187C64.69 72.1664 61.5489 71.9812 61.5489 71.9812C60.2232 71.8678 60.0441 72.7635 60.0441 72.7635C59.7992 73.8444 60.9756 74.34 60.9756 74.34C61.1309 74.4296 62.5342 74.7102 63.5374 74.9013L64.5407 75.0864L64.8213 75.1402C64.7915 75.1342 64.672 75.1282 64.6243 75.3253C64.6004 75.4209 64.6243 75.4865 64.6422 75.5283C64.4929 75.4627 64.3137 75.4029 64.1047 75.3611C63.633 75.2656 62.2058 75.0327 62.0983 75.0148L61.74 74.967C60.5576 74.8118 60.271 75.0208 60.271 75.0208C59.6141 75.3671 59.8052 76.2031 59.8052 76.2031C59.9485 77.0093 60.8383 77.2601 60.8383 77.2601C61.1787 77.3616 62.9821 77.7975 62.9821 77.7975L60.2531 77.4392C60.062 77.3795 59.9903 77.29 59.8828 77.2063C58.9214 76.4181 59.3275 75.3492 59.3275 75.3492C59.4768 74.9372 59.7873 74.752 59.7873 74.752C59.9724 74.6386 60.1874 74.5789 60.4083 74.555C59.2917 73.9638 59.4708 72.7695 59.4708 72.7695C59.6141 72.035 60.1456 71.7245 60.5636 71.5931C60.5278 71.5632 60.486 71.5334 60.4501 71.4975C60.4501 71.4975 59.7336 71.0258 59.9963 69.0014C60.0859 68.3207 60.0739 68.2251 60.0023 67.7952C60.0023 67.7952 59.7455 66.8755 58.9811 67.1682C58.9811 67.1682 58.7244 67.2338 58.3243 67.5503C58.3243 67.5503 58.0018 67.8011 58.0078 67.407C58.0078 67.2876 58.0914 67.0726 58.2526 66.8875C58.2526 66.8875 58.4198 66.6904 58.8318 66.577C58.8318 66.577 59.9008 66.153 60.4322 67.2219C60.7129 67.7832 60.6591 68.1535 60.5696 68.7267C60.5696 68.7267 60.4024 70.5361 60.8741 71.1154C60.8741 71.1154 61.3399 71.6468 62.0864 71.3184C62.0923 71.3303 63.1075 70.775 62.9522 68.3804Z" fill="#E49500"/>
</g>
<defs>
<clipPath id="clip0_61_712">
<rect width="76.436" height="76.436" fill="white"/>
</clipPath>
</defs>
</svg>
