<svg width="41" height="40" viewBox="0 0 41 40" fill="none" xmlns="http://www.w3.org/2000/svg">
<path fill-rule="evenodd" clip-rule="evenodd" d="M25.5356 5.57248C26.3829 5.42734 27.3317 5.37888 28.2247 5.52995C29.8194 5.79976 31.2925 6.54097 32.4569 7.65223C33.2181 7.66945 33.9661 7.5195 34.628 7.30572C35.1882 7.12481 35.6614 6.90635 35.993 6.73363C36.1578 6.64774 36.2852 6.57448 36.368 6.52488C36.4093 6.50012 36.4394 6.48138 36.4572 6.47006L36.4731 6.45995C36.9678 6.13041 37.6265 6.19455 38.0479 6.61372C38.4695 7.033 38.5374 7.6912 38.2103 8.1877C37.8641 8.71319 37.3835 9.64998 36.8451 10.6996C36.7604 10.8646 36.6743 11.0324 36.5871 11.2019C36.2783 11.8018 35.9617 12.4082 35.6665 12.9284C35.4812 13.255 35.283 13.5867 35.0831 13.8732V14.3295C35.0958 16.0056 34.9036 17.6729 34.5135 19.2949C34.268 20.3155 33.9442 21.3181 33.5438 22.2938C32.5064 24.8215 30.9758 27.1173 29.0412 29.0469C27.1067 30.9764 24.807 32.5012 22.2766 33.5321C19.7484 34.5621 17.0405 35.0784 14.3108 35.051C10.3536 35.0545 6.47963 33.9144 3.1551 31.7678C2.66543 31.4517 2.45927 30.839 2.65816 30.2911C2.85705 29.7433 3.40821 29.4056 3.98666 29.4771C4.48726 29.5391 4.99128 29.5693 5.4957 29.5677C7.30812 29.5626 9.08602 29.1622 10.7091 28.4077C10.1932 28.1729 9.70065 27.8833 9.24039 27.542C7.88753 26.5389 6.88101 25.1389 6.3609 23.537C6.22574 23.1208 6.31814 22.6641 6.60449 22.3332C6.60962 22.3272 6.6148 22.3214 6.62003 22.3155C6.31415 22.0428 6.02793 21.7458 5.76444 21.4264C4.57891 19.9894 3.92612 18.187 3.91648 16.3242L3.91645 16.3177L3.91647 16.2344C3.91647 15.7912 4.15105 15.3813 4.53306 15.1567C4.62989 15.0998 4.73253 15.057 4.83812 15.0282C4.27423 13.9031 3.98099 12.6607 3.98313 11.4002C3.98247 9.9723 4.35546 8.56902 5.06506 7.32985C5.26991 6.97212 5.63796 6.73839 6.04884 6.7051C6.45973 6.67181 6.8606 6.84323 7.12038 7.16331C8.72463 9.14 10.7268 10.7571 12.9968 11.9095C14.1637 12.502 15.3879 12.9648 16.6476 13.2922C17.3538 13.4757 18.0711 13.6167 18.7958 13.7141C18.7638 12.5087 19.0019 11.3039 19.5014 10.1907C20.2342 8.55761 21.4883 7.21398 23.0671 6.3705C23.7356 6.01328 24.6232 5.72876 25.5356 5.57248ZM6.73859 18.1516C6.95467 18.7598 7.27611 19.3303 7.69287 19.8355C8.51175 20.8281 9.64832 21.5073 10.9104 21.7584C11.4725 21.8702 11.8866 22.35 11.9149 22.9225C11.9433 23.4949 11.5787 24.0133 11.0304 24.1802C10.5762 24.3184 10.1109 24.4147 9.64035 24.4682C9.95132 24.869 10.3171 25.2281 10.7295 25.5339C11.6648 26.2274 12.793 26.6122 13.9572 26.6346C14.4854 26.6448 14.9502 26.9859 15.1182 27.4867C15.2863 27.9876 15.1213 28.54 14.7061 28.8667C12.9575 30.2426 10.9355 31.202 8.7929 31.6918C10.5687 32.2605 12.4311 32.5533 14.3149 32.551L14.3294 32.551C16.7295 32.5759 19.1105 32.1224 21.3334 31.2169C23.5562 30.3113 25.5763 28.9719 27.2757 27.2768C28.9751 25.5818 30.3197 23.5651 31.231 21.3446C31.5827 20.4876 31.8672 19.6068 32.0828 18.7103C32.4258 17.284 32.5947 15.8179 32.5832 14.3441L32.5831 14.3344V13.451C32.5831 13.1479 32.6933 12.8552 32.893 12.6272C33.0084 12.4955 33.2104 12.1912 33.4921 11.6947C33.7598 11.2228 34.0562 10.6563 34.3643 10.0577C34.383 10.0215 34.4017 9.98509 34.4205 9.94853C33.6212 10.1221 32.7152 10.2131 31.7655 10.1104C31.4647 10.0779 31.1859 9.93746 30.9809 9.71506C30.1427 8.80617 29.0267 8.20116 27.8076 7.99492C27.2667 7.90341 26.6128 7.92436 25.9576 8.03659C25.2458 8.15852 24.6263 8.37188 24.2452 8.5755C23.1547 9.15812 22.2885 10.0862 21.7823 11.2142C21.2761 12.3421 21.1587 13.6062 21.4483 14.8082C21.5407 15.1913 21.4469 15.5956 21.1953 15.899C20.9436 16.2024 20.5636 16.3693 20.17 16.3494C18.7643 16.2783 17.3735 16.0639 16.0187 15.7118C14.5855 15.3393 13.1926 14.8127 11.865 14.1387C9.91039 13.1464 8.1303 11.8512 6.58891 10.305C6.51859 10.6644 6.48289 11.0311 6.48313 11.4002L6.48313 11.4034C6.48139 12.3213 6.70664 13.2253 7.13882 14.0351C7.571 14.8448 8.19671 15.5351 8.96023 16.0445C9.4236 16.3537 9.62648 16.9322 9.45772 17.463C9.28897 17.9939 8.7893 18.349 8.23247 18.3339C7.72814 18.3202 7.22804 18.2588 6.73859 18.1516Z" fill="black"/>
</svg>
