<svg width="200" height="200" viewBox="0 0 200 200" fill="none" xmlns="http://www.w3.org/2000/svg">
<path d="M189.828 157.332V157.628H10.1707V157.332H189.828Z" fill="#DADAF7"/>
<path opacity="0.998" d="M83.1283 157.509C79.7005 157.5 76.4155 156.134 73.9918 153.71C71.5681 151.286 70.2028 148.001 70.1946 144.574L70.1646 55.6035C70.1731 52.1759 71.5385 48.8911 73.9622 46.4675C76.3859 44.0438 79.6707 42.6784 83.0983 42.6698L143.063 42.6398C146.491 42.6484 149.776 44.0138 152.199 46.4375C154.623 48.8611 155.988 52.1459 155.997 55.5735L156.027 144.544C156.014 147.97 154.647 151.252 152.224 153.675C149.802 156.098 146.52 157.465 143.093 157.479L83.1283 157.509Z" fill="#F4F3FD"/>
<path d="M91.1793 64.867C90.7166 64.8547 90.2769 64.6623 89.9539 64.3306C89.6309 63.999 89.4502 63.5543 89.4502 63.0914C89.4502 62.6285 89.6309 62.1838 89.9539 61.8522C90.2769 61.5205 90.7166 61.328 91.1793 61.3158L134.983 61.2858C135.446 61.298 135.886 61.4905 136.209 61.8222C136.531 62.1538 136.712 62.5985 136.712 63.0614C136.712 63.5243 136.531 63.969 136.209 64.3006C135.886 64.6323 135.446 64.8247 134.983 64.837L91.1793 64.867Z" fill="#DADAF7"/>
<path d="M91.1793 82.2407C90.7166 82.2284 90.2769 82.0359 89.9539 81.7043C89.6309 81.3726 89.4502 80.928 89.4502 80.465C89.4502 80.0021 89.6309 79.5575 89.9539 79.2258C90.2769 78.8942 90.7166 78.7017 91.1793 78.6894L134.983 78.6594C135.446 78.6717 135.886 78.8642 136.209 79.1958C136.531 79.5275 136.712 79.9721 136.712 80.435C136.712 80.898 136.531 81.3426 136.209 81.6743C135.886 82.0059 135.446 82.1984 134.983 82.2107L91.1793 82.2407Z" fill="#DADAF7"/>
<path d="M91.1793 99.6143C90.7166 99.6021 90.2769 99.4096 89.9539 99.0779C89.6309 98.7463 89.4502 98.3016 89.4502 97.8387C89.4502 97.3758 89.6309 96.9311 89.9539 96.5995C90.2769 96.2678 90.7166 96.0754 91.1793 96.0631L134.983 96.0331C135.446 96.0454 135.886 96.2378 136.209 96.5695C136.531 96.9011 136.712 97.3458 136.712 97.8087C136.712 98.2716 136.531 98.7163 136.209 99.0479C135.886 99.3796 135.446 99.5721 134.983 99.5843L91.1793 99.6143Z" fill="#DADAF7"/>
<path d="M91.1798 116.958C90.9427 116.964 90.7067 116.923 90.4857 116.837C90.2648 116.75 90.0634 116.621 89.8935 116.455C89.7235 116.289 89.5884 116.092 89.4962 115.873C89.404 115.655 89.3564 115.42 89.3564 115.182C89.3564 114.945 89.404 114.71 89.4962 114.492C89.5884 114.273 89.7235 114.075 89.8935 113.91C90.0634 113.744 90.2648 113.615 90.4857 113.528C90.7067 113.442 90.9427 113.401 91.1798 113.407L134.984 113.377C135.446 113.389 135.886 113.582 136.209 113.913C136.532 114.245 136.713 114.69 136.713 115.152C136.713 115.615 136.532 116.06 136.209 116.392C135.886 116.723 135.446 116.916 134.984 116.928L91.1798 116.958Z" fill="#DADAF7"/>
<path opacity="0.533" d="M76.8544 157.507C75.1732 157.503 73.5216 157.065 72.0594 156.235C72.4809 156.657 72.9849 156.988 73.54 157.207C74.0951 157.426 74.6894 157.528 75.2857 157.507H76.8544Z" fill="#EAEAFF"/>
<path d="M161.384 135.576H137.384L88.84 135.606C89.225 137.255 89.4138 138.944 89.4025 140.637C89.4025 149.961 83.7775 157.512 76.8237 157.512L149.782 157.482C150.394 157.481 151.002 157.391 151.587 157.216C157.477 155.791 161.949 148.895 161.949 140.607C161.945 138.915 161.755 137.228 161.384 135.576V135.576Z" fill="#EAEAFF"/>
<path d="M178.849 129.362C189.296 129.362 193.349 118.41 184.974 113.349C183.454 112.45 181.693 112.045 179.934 112.188C178.174 112.331 176.502 113.015 175.147 114.148C175.147 114.148 175.149 104.737 164.106 104.912C153.039 105.092 154.341 116.872 154.341 116.872C154.341 116.872 148.6 117.049 147.919 122.169C147.12 127.852 154.194 129.362 157.894 129.362H178.849Z" fill="#EAEAFF"/>
<path d="M37.8743 64.2764C28.4918 64.2764 24.8806 54.4801 32.3743 49.9514C33.7325 49.1446 35.3078 48.7795 36.8824 48.9067C38.457 49.0339 39.9532 49.647 41.1643 50.6614C41.1643 50.6614 41.1293 42.2264 51.0456 42.3726C60.9618 42.5189 59.8068 53.0864 59.8068 53.0864C59.8068 53.0864 64.9318 53.2639 65.5781 57.8214C66.2881 62.9126 59.9243 64.2739 56.6393 64.2739L37.8743 64.2764Z" fill="#EAEAFF"/>
<path d="M45.1853 127.911L60.5766 133.831L50.5128 157.508H45.1853L37.8453 146.261L45.1853 127.911Z" fill="#F9ACC0"/>
<path d="M109.412 127.911L94.0205 133.831L104.084 157.508H109.412L116.752 146.232L109.412 127.911Z" fill="#F9ACC0"/>
<path d="M55.5409 137.383L41.0409 130.576C41.0409 130.576 42.1659 128.923 44.1484 126.521C48.0846 121.815 55.3659 114.271 63.8009 111.337C76.5284 106.897 86.8871 110.153 94.5834 113.408C99.7334 115.57 113.822 131.758 113.822 131.758L99.0234 137.383L105.273 157.508H49.3284L55.5409 137.383Z" fill="#3D5CFF"/>
<path d="M87.1839 87.9546C86.9777 82.8934 82.7452 78.7796 77.7127 79.6709C71.2564 80.8209 64.3939 82.9209 62.0264 87.9546C60.3689 91.4771 61.9964 98.4909 65.8739 101.273C72.0889 105.713 74.1614 103.05 74.1614 103.05L82.1527 98.3146C83.8061 97.161 85.1365 95.6033 86.0172 93.7897C86.898 91.9762 87.2996 89.9674 87.1839 87.9546Z" fill="#1F1F39"/>
<path d="M64.9824 94.4662C62.6186 95.9462 64.3949 99.7899 66.4661 100.682C67.3617 101.198 68.4012 101.406 69.4261 101.275V111.339C71.3686 112.239 73.5036 112.646 75.6411 112.522C77.4972 112.381 79.3076 111.878 80.9699 111.04L80.0824 103.936C81.2815 103.386 82.304 102.514 83.0358 101.416C83.7676 100.319 84.1797 99.0395 84.2261 97.7212C84.3015 95.4192 84.0013 93.1203 83.3374 90.9149L71.4986 93.2824C71.6839 94.2604 71.6839 95.2644 71.4986 96.2424C71.4298 97.0996 71.1209 97.9201 70.6074 98.6099C70.6074 98.6099 70.9036 95.9462 69.4236 95.0587C68.8507 94.4867 68.1056 94.1189 67.3031 94.0118C66.5006 93.9047 65.6852 94.0644 64.9824 94.4662Z" fill="#F9D2DD"/>
<path d="M55.4852 137.531C55.4671 137.526 55.4502 137.518 55.4356 137.506C55.4211 137.494 55.4092 137.479 55.4008 137.462C55.3924 137.445 55.3877 137.427 55.3869 137.408C55.3862 137.39 55.3894 137.371 55.3964 137.353L59.8364 125.218C59.8413 125.201 59.8499 125.184 59.8615 125.17C59.8731 125.156 59.8875 125.144 59.9038 125.136C59.9201 125.128 59.938 125.123 59.9563 125.122C59.9747 125.121 59.993 125.123 60.0102 125.13C60.0283 125.135 60.0452 125.143 60.0597 125.155C60.0743 125.167 60.0861 125.182 60.0945 125.198C60.1029 125.215 60.1076 125.234 60.1084 125.252C60.1092 125.271 60.1059 125.29 60.0989 125.307L55.6627 137.442C55.6627 137.501 55.6039 137.531 55.5439 137.531H55.4852Z" fill="#DADAF7"/>
<path d="M43.2649 132.706C41.5774 129.865 35.6287 115.983 35.6287 115.983C35.6287 115.983 34.0899 110.33 30.7449 109.561C28.7995 109.2 26.9586 108.411 25.3549 107.252C24.0824 106.482 22.7799 106.216 22.0149 106.986C21.6647 107.358 21.4485 107.837 21.4003 108.346C21.3521 108.855 21.4746 109.366 21.7487 109.797C22.0375 110.407 22.4725 110.935 23.0149 111.336C23.0149 111.336 12.7462 111.07 11.4737 112.106C10.2012 113.142 9.4312 115.953 14.2849 117.492C17.8146 118.441 21.4639 118.87 25.1174 118.765C25.3537 119.265 32.3987 144.485 34.5299 150.078C36.6912 155.672 40.9824 157.828 44.5299 157.507C48.1412 157.211 52.5512 154.518 50.8049 147.532C50.8087 147.535 45.6299 136.672 43.2649 132.706Z" fill="#F9D2DD"/>
<path d="M98.9055 137.442L94.4655 125.307C94.4571 125.29 94.4528 125.271 94.4529 125.252C94.453 125.233 94.4575 125.214 94.4661 125.197C94.4747 125.179 94.4871 125.164 94.5024 125.153C94.5177 125.141 94.5354 125.133 94.5543 125.13C94.5715 125.121 94.5905 125.117 94.6097 125.117C94.6288 125.117 94.6478 125.122 94.6649 125.13C94.6821 125.139 94.697 125.151 94.7086 125.167C94.7202 125.182 94.7281 125.2 94.7318 125.218L99.1718 137.353C99.1802 137.371 99.1844 137.39 99.1841 137.41C99.1838 137.429 99.1789 137.448 99.1699 137.465C99.161 137.483 99.1481 137.497 99.1324 137.509C99.1166 137.52 99.0984 137.528 99.0793 137.531H99.053C99.0226 137.531 98.9926 137.523 98.9665 137.508C98.9405 137.492 98.9193 137.469 98.9055 137.442Z" fill="#DADAF7"/>
<path d="M111.277 132.647C112.964 129.806 118.913 115.925 118.913 115.925C118.913 115.925 120.452 110.271 123.797 109.502C125.741 109.141 127.581 108.352 129.184 107.193C130.457 106.423 131.759 106.157 132.529 106.927C132.879 107.3 133.096 107.778 133.144 108.287C133.192 108.796 133.069 109.307 132.795 109.738C132.505 110.349 132.068 110.877 131.523 111.277C131.523 111.277 141.793 111.011 143.065 112.047C144.338 113.083 145.107 115.895 140.252 117.433C136.722 118.388 133.074 118.826 129.419 118.736C129.183 119.236 122.169 144.456 120.007 150.05C117.844 155.643 113.554 157.8 110.007 157.478C106.455 157.182 102.045 154.49 103.757 147.503C103.759 147.505 108.909 136.643 111.277 132.647Z" fill="#F9D2DD"/>
<path d="M13.4865 117.375C13.0753 117.263 12.7065 117.032 12.4272 116.71C12.1478 116.388 11.9705 115.99 11.9178 115.567C11.8631 115.072 11.9478 114.572 12.1622 114.123C12.3767 113.673 12.7124 113.292 13.1315 113.024C14.6415 112.136 28.1665 112.524 28.7565 112.55C28.7754 112.549 28.7942 112.553 28.8118 112.56C28.8294 112.567 28.8454 112.577 28.8588 112.59C28.8723 112.604 28.8829 112.62 28.89 112.637C28.8971 112.655 28.9006 112.673 28.9003 112.692C28.8976 112.731 28.8812 112.767 28.8541 112.794C28.827 112.821 28.791 112.837 28.7528 112.84C23.9003 112.692 14.4328 112.58 13.309 113.261C12.9392 113.501 12.6418 113.837 12.4489 114.234C12.2559 114.63 12.1747 115.072 12.214 115.511C12.2532 115.88 12.4047 116.229 12.6482 116.509C12.8916 116.789 13.2152 116.988 13.5753 117.079C13.5934 117.083 13.6103 117.092 13.6248 117.104C13.6394 117.116 13.6512 117.131 13.6596 117.147C13.668 117.164 13.6727 117.182 13.6735 117.201C13.6742 117.22 13.671 117.239 13.664 117.256C13.6566 117.29 13.638 117.32 13.6111 117.341C13.5843 117.363 13.5509 117.375 13.5165 117.375H13.4865Z" fill="white"/>
<path d="M15.7947 118.024C15.5336 117.955 15.3001 117.807 15.1255 117.601C14.951 117.395 14.8438 117.14 14.8185 116.871C14.7813 116.559 14.834 116.243 14.9701 115.959C15.1063 115.676 15.3203 115.438 15.5872 115.272C16.4747 114.739 24.111 114.947 24.9997 114.976C25.0195 114.975 25.0392 114.978 25.0577 114.985C25.0762 114.992 25.093 115.003 25.1069 115.017C25.1208 115.031 25.1316 115.048 25.1386 115.066C25.1455 115.085 25.1485 115.105 25.1472 115.124C25.1446 115.163 25.1282 115.199 25.1011 115.226C25.074 115.253 25.038 115.269 24.9997 115.272C21.626 115.153 16.3872 115.153 15.7647 115.509C15.5527 115.65 15.3827 115.845 15.2727 116.075C15.1627 116.304 15.1167 116.559 15.1397 116.812C15.16 117.022 15.245 117.22 15.383 117.379C15.521 117.538 15.7051 117.65 15.9097 117.699C15.9278 117.704 15.9447 117.713 15.9593 117.725C15.9738 117.737 15.9857 117.751 15.994 117.768C16.0024 117.785 16.0072 117.803 16.0079 117.822C16.0087 117.841 16.0055 117.86 15.9985 117.877C15.9397 117.996 15.8797 118.024 15.821 118.024H15.7947Z" fill="white"/>
<path d="M22.9575 111.515C22.9191 111.512 22.8829 111.495 22.8558 111.468C22.8286 111.441 22.8124 111.404 22.81 111.366C22.8089 111.346 22.812 111.327 22.819 111.308C22.8261 111.29 22.8369 111.273 22.8508 111.259C22.8647 111.245 22.8814 111.234 22.8998 111.227C22.9182 111.22 22.9379 111.217 22.9575 111.218L28.2563 111.515C28.2945 111.517 28.3305 111.534 28.3577 111.561C28.3848 111.588 28.4011 111.624 28.4038 111.662C28.435 111.718 28.3738 111.811 28.285 111.811L22.9575 111.515Z" fill="white"/>
<path d="M140.757 117.227C140.746 117.192 140.749 117.154 140.765 117.121C140.782 117.088 140.811 117.062 140.845 117.05C141.206 116.959 141.529 116.76 141.773 116.48C142.016 116.199 142.168 115.85 142.207 115.481C142.262 115.04 142.188 114.593 141.994 114.193C141.8 113.793 141.493 113.459 141.112 113.231C139.958 112.551 130.487 112.669 125.662 112.817C125.642 112.818 125.622 112.815 125.604 112.808C125.585 112.801 125.568 112.79 125.554 112.776C125.54 112.762 125.53 112.745 125.523 112.727C125.516 112.708 125.513 112.688 125.514 112.669C125.513 112.649 125.516 112.629 125.523 112.611C125.53 112.592 125.541 112.576 125.555 112.562C125.569 112.548 125.585 112.537 125.604 112.53C125.622 112.523 125.642 112.52 125.662 112.521C126.224 112.491 139.78 112.077 141.289 112.995C141.708 113.264 142.044 113.645 142.259 114.094C142.473 114.544 142.558 115.045 142.503 115.54C142.454 115.964 142.278 116.363 141.998 116.685C141.718 117.008 141.347 117.237 140.934 117.345H140.904C140.87 117.345 140.837 117.333 140.81 117.312C140.783 117.29 140.764 117.261 140.757 117.227Z" fill="white"/>
<path d="M138.448 117.877C138.437 117.842 138.441 117.804 138.457 117.771C138.474 117.738 138.502 117.712 138.537 117.7C138.739 117.645 138.919 117.532 139.056 117.373C139.192 117.215 139.278 117.02 139.302 116.812C139.325 116.559 139.279 116.304 139.169 116.075C139.059 115.845 138.889 115.65 138.677 115.51C138.063 115.125 132.824 115.152 129.449 115.277C129.429 115.278 129.409 115.275 129.39 115.268C129.372 115.26 129.355 115.249 129.341 115.235C129.327 115.22 129.316 115.203 129.309 115.184C129.303 115.165 129.3 115.145 129.302 115.125C129.301 115.105 129.304 115.085 129.311 115.067C129.318 115.048 129.329 115.032 129.343 115.018C129.357 115.004 129.373 114.993 129.392 114.986C129.41 114.979 129.43 114.976 129.449 114.977C130.308 114.947 137.944 114.711 138.862 115.277C139.124 115.448 139.335 115.687 139.471 115.969C139.607 116.251 139.662 116.564 139.632 116.876C139.607 117.145 139.499 117.4 139.325 117.606C139.15 117.812 138.917 117.96 138.656 118.03C138.626 118 138.626 118 138.597 118C138.562 118 138.528 117.987 138.501 117.965C138.473 117.943 138.455 117.912 138.448 117.877Z" fill="white"/>
<path d="M125.988 111.604C125.987 111.584 125.99 111.564 125.997 111.546C126.004 111.528 126.014 111.511 126.028 111.497C126.042 111.483 126.059 111.472 126.077 111.465C126.096 111.458 126.115 111.455 126.135 111.456L131.434 111.16C131.453 111.159 131.473 111.162 131.492 111.169C131.51 111.176 131.527 111.187 131.541 111.201C131.554 111.215 131.565 111.231 131.572 111.25C131.579 111.268 131.582 111.288 131.581 111.307C131.582 111.327 131.579 111.347 131.572 111.365C131.565 111.383 131.554 111.4 131.541 111.414C131.527 111.428 131.51 111.439 131.492 111.446C131.473 111.453 131.453 111.456 131.434 111.455L126.135 111.752C126.115 111.753 126.096 111.75 126.077 111.743C126.059 111.736 126.042 111.725 126.028 111.711C126.014 111.697 126.003 111.68 125.996 111.662C125.989 111.643 125.986 111.623 125.988 111.604Z" fill="white"/>
<path d="M80.4065 103.788C80.3178 103.818 80.264 103.848 80.1703 103.877C77.8111 104.746 75.2111 104.693 72.889 103.73C74.9105 106.019 77.6221 107.587 80.614 108.198L80.0815 103.937C80.0815 103.937 80.199 103.877 80.4065 103.788Z" fill="#F9ACC0"/>
</svg>
