<svg width="42" height="36" viewBox="0 0 42 36" fill="none" xmlns="http://www.w3.org/2000/svg">
<path d="M26.5252 22.5C21.4664 22.5 11.3679 25.4925 11.3679 31.5V36H41.6824V31.5C41.6824 25.4925 31.5839 22.5 26.5252 22.5ZM26.5252 18C28.5351 18 30.4628 17.0518 31.8841 15.364C33.3053 13.6761 34.1038 11.3869 34.1038 9C34.1038 6.61305 33.3053 4.32387 31.8841 2.63604C30.4628 0.948211 28.5351 0 26.5252 0C24.5152 0 22.5875 0.948211 21.1663 2.63604C19.745 4.32387 18.9465 6.61305 18.9465 9C18.9465 11.3869 19.745 13.6761 21.1663 15.364C22.5875 17.0518 24.5152 18 26.5252 18ZM7.57862 20.88L12.2205 24.2325L10.989 17.91L15.1572 13.68L9.68168 13.1175L7.57862 7.1775L5.43766 13.1175L0 13.68L4.13035 17.91L2.84198 24.2325L7.57862 20.88Z" fill="#911DED"/>
</svg>
