<svg width="122" height="111" viewBox="0 0 122 111" fill="none" xmlns="http://www.w3.org/2000/svg">
<path d="M96.1654 0C102.924 0 109.406 2.68489 114.185 7.46401C118.964 12.2431 121.649 18.725 121.649 25.4837V84.9458C121.649 91.7045 118.964 98.1864 114.185 102.965C109.406 107.745 102.924 110.43 96.1654 110.43H36.7033C29.9446 110.43 23.4627 107.745 18.6836 102.965C13.9045 98.1864 11.2196 91.7045 11.2196 84.9458V25.4837C11.2196 18.725 13.9045 12.2431 18.6836 7.46401C23.4627 2.68489 29.9446 0 36.7033 0L96.1654 0Z" fill="#EAEAFF"/>
<path d="M89.489 43.6197H88.2271C88.198 43.621 88.1689 43.6164 88.1416 43.6061C88.1143 43.5959 88.0894 43.5802 88.0684 43.5601C88.0473 43.5399 88.0306 43.5157 88.0191 43.4889C88.0077 43.4621 88.0018 43.4333 88.0018 43.4041C88.0018 43.375 88.0077 43.3462 88.0191 43.3194C88.0306 43.2926 88.0473 43.2684 88.0684 43.2482C88.0894 43.2281 88.1143 43.2124 88.1416 43.2022C88.1689 43.1919 88.198 43.1873 88.2271 43.1886H89.5102C89.5403 43.1881 89.5701 43.1945 89.5974 43.2073C89.6246 43.2201 89.6485 43.239 89.6673 43.2625C89.6826 43.2824 89.6929 43.3056 89.6975 43.3303C89.7021 43.3549 89.7008 43.3803 89.6937 43.4044C89.6962 43.4312 89.693 43.4583 89.6844 43.4838C89.6758 43.5093 89.6619 43.5328 89.6436 43.5526C89.6238 43.5738 89.5999 43.5908 89.5733 43.6023C89.5467 43.6139 89.518 43.6198 89.489 43.6197ZM86.944 43.6197H85.6609C85.6318 43.621 85.6027 43.6164 85.5754 43.6061C85.5481 43.5959 85.5232 43.5802 85.5022 43.5601C85.4811 43.5399 85.4644 43.5157 85.4529 43.4889C85.4415 43.4621 85.4355 43.4333 85.4355 43.4041C85.4355 43.375 85.4415 43.3462 85.4529 43.3194C85.4644 43.2926 85.4811 43.2684 85.5022 43.2482C85.5232 43.2281 85.5481 43.2124 85.5754 43.2022C85.6027 43.1919 85.6318 43.1873 85.6609 43.1886H86.9453C86.9744 43.1873 87.0034 43.1919 87.0307 43.2022C87.058 43.2124 87.0829 43.2281 87.104 43.2482C87.125 43.2684 87.1418 43.2926 87.1532 43.3194C87.1647 43.3462 87.1706 43.375 87.1706 43.4041C87.1706 43.4333 87.1647 43.4621 87.1532 43.4889C87.1418 43.5157 87.125 43.5399 87.104 43.5601C87.0829 43.5802 87.058 43.5959 87.0307 43.6061C87.0034 43.6164 86.9744 43.621 86.9453 43.6197H86.944ZM84.3663 43.6197H83.0832C83.0277 43.6172 82.9753 43.5934 82.9369 43.5533C82.8984 43.5131 82.877 43.4597 82.877 43.4041C82.877 43.3486 82.8984 43.2952 82.9369 43.255C82.9753 43.2148 83.0277 43.1911 83.0832 43.1886H84.3663C84.4218 43.1911 84.4742 43.2148 84.5126 43.255C84.5511 43.2952 84.5725 43.3486 84.5725 43.4041C84.5725 43.4597 84.5511 43.5131 84.5126 43.5533C84.4742 43.5934 84.4218 43.6172 84.3663 43.6197ZM81.7891 43.6197H80.5055C80.45 43.6172 80.3976 43.5934 80.3592 43.5533C80.3208 43.5131 80.2993 43.4597 80.2993 43.4041C80.2993 43.3486 80.3208 43.2952 80.3592 43.255C80.3976 43.2148 80.45 43.1911 80.5055 43.1886H81.7891C81.8446 43.1911 81.897 43.2148 81.9354 43.255C81.9738 43.2952 81.9952 43.3486 81.9952 43.4041C81.9952 43.4597 81.9738 43.5131 81.9354 43.5533C81.897 43.5934 81.8446 43.6172 81.7891 43.6197ZM79.2114 43.6197H77.9287C77.8996 43.621 77.8705 43.6164 77.8432 43.6061C77.816 43.5959 77.791 43.5802 77.77 43.5601C77.7489 43.5399 77.7322 43.5157 77.7207 43.4889C77.7093 43.4621 77.7034 43.4333 77.7034 43.4041C77.7034 43.375 77.7093 43.3462 77.7207 43.3194C77.7322 43.2926 77.7489 43.2684 77.77 43.2482C77.791 43.2281 77.816 43.2124 77.8432 43.2022C77.8705 43.1919 77.8996 43.1873 77.9287 43.1886H79.2118C79.2409 43.1873 79.27 43.1919 79.2973 43.2022C79.3245 43.2124 79.3495 43.2281 79.3705 43.2482C79.3916 43.2684 79.4083 43.2926 79.4198 43.3194C79.4312 43.3462 79.4371 43.375 79.4371 43.4041C79.4371 43.4333 79.4312 43.4621 79.4198 43.4889C79.4083 43.5157 79.3916 43.5399 79.3705 43.5601C79.3495 43.5802 79.3245 43.5959 79.2973 43.6061C79.27 43.6164 79.2409 43.621 79.2118 43.6197H79.2114ZM76.6447 43.6197H75.3616C75.3061 43.6172 75.2537 43.5934 75.2153 43.5533C75.1769 43.5131 75.1554 43.4597 75.1554 43.4041C75.1554 43.3486 75.1769 43.2952 75.2153 43.255C75.2537 43.2148 75.3061 43.1911 75.3616 43.1886H76.6452C76.7007 43.1911 76.7531 43.2148 76.7915 43.255C76.8299 43.2952 76.8514 43.3486 76.8514 43.4041C76.8514 43.4597 76.8299 43.5131 76.7915 43.5533C76.7531 43.5934 76.7007 43.6172 76.6452 43.6197H76.6447ZM74.0671 43.6197H72.7844C72.7289 43.6172 72.6764 43.5934 72.638 43.5533C72.5996 43.5131 72.5782 43.4597 72.5782 43.4041C72.5782 43.3486 72.5996 43.2952 72.638 43.255C72.6764 43.2148 72.7289 43.1911 72.7844 43.1886H74.0675C74.123 43.1911 74.1754 43.2148 74.2138 43.255C74.2522 43.2952 74.2737 43.3486 74.2737 43.4041C74.2737 43.4597 74.2522 43.5131 74.2138 43.5533C74.1754 43.5934 74.123 43.6172 74.0675 43.6197H74.0671ZM71.4894 43.6197H70.2071C70.178 43.621 70.1489 43.6164 70.1217 43.6061C70.0944 43.5959 70.0695 43.5802 70.0484 43.5601C70.0273 43.5399 70.0106 43.5157 69.9991 43.4889C69.9877 43.4621 69.9818 43.4333 69.9818 43.4041C69.9818 43.375 69.9877 43.3462 69.9991 43.3194C70.0106 43.2926 70.0273 43.2684 70.0484 43.2482C70.0695 43.2281 70.0944 43.2124 70.1217 43.2022C70.1489 43.1919 70.178 43.1873 70.2071 43.1886H71.4902C71.5193 43.1873 71.5484 43.1919 71.5757 43.2022C71.603 43.2124 71.6279 43.2281 71.6489 43.2482C71.67 43.2684 71.6868 43.2926 71.6982 43.3194C71.7097 43.3462 71.7156 43.375 71.7156 43.4041C71.7156 43.4333 71.7097 43.4621 71.6982 43.4889C71.6868 43.5157 71.67 43.5399 71.6489 43.5601C71.6279 43.5802 71.603 43.5959 71.5757 43.6061C71.5484 43.6164 71.5193 43.621 71.4902 43.6197H71.4894ZM68.9121 43.6197H67.6299C67.6008 43.621 67.5717 43.6164 67.5444 43.6061C67.5171 43.5959 67.4922 43.5802 67.4712 43.5601C67.4501 43.5399 67.4333 43.5157 67.4219 43.4889C67.4104 43.4621 67.4045 43.4333 67.4045 43.4041C67.4045 43.375 67.4104 43.3462 67.4219 43.3194C67.4333 43.2926 67.4501 43.2684 67.4712 43.2482C67.4922 43.2281 67.5171 43.2124 67.5444 43.2022C67.5717 43.1919 67.6008 43.1873 67.6299 43.1886H68.913C68.9685 43.1911 69.0209 43.2148 69.0593 43.255C69.0977 43.2952 69.1192 43.3486 69.1192 43.4041C69.1192 43.4597 69.0977 43.5131 69.0593 43.5533C69.0209 43.5934 68.9685 43.6172 68.913 43.6197H68.9121ZM66.3451 43.6197H65.0628C65.0337 43.621 65.0046 43.6164 64.9773 43.6061C64.9501 43.5959 64.9251 43.5802 64.9041 43.5601C64.883 43.5399 64.8663 43.5157 64.8548 43.4889C64.8434 43.4621 64.8375 43.4333 64.8375 43.4041C64.8375 43.375 64.8434 43.3462 64.8548 43.3194C64.8663 43.2926 64.883 43.2684 64.9041 43.2482C64.9251 43.2281 64.9501 43.2124 64.9773 43.2022C65.0046 43.1919 65.0337 43.1873 65.0628 43.1886H66.3459C66.375 43.1873 66.4041 43.1919 66.4314 43.2022C66.4587 43.2124 66.4836 43.2281 66.5046 43.2482C66.5257 43.2684 66.5424 43.2926 66.5539 43.3194C66.5653 43.3462 66.5712 43.375 66.5712 43.4041C66.5712 43.4333 66.5653 43.4621 66.5539 43.4889C66.5424 43.5157 66.5257 43.5399 66.5046 43.5601C66.4836 43.5802 66.4587 43.5959 66.4314 43.6061C66.4041 43.6164 66.375 43.621 66.3459 43.6197H66.3451ZM63.7678 43.6197H62.4851C62.4296 43.6172 62.3772 43.5934 62.3388 43.5533C62.3004 43.5131 62.2789 43.4597 62.2789 43.4041C62.2789 43.3486 62.3004 43.2952 62.3388 43.255C62.3772 43.2148 62.4296 43.1911 62.4851 43.1886H63.7687C63.8242 43.1911 63.8766 43.2148 63.915 43.255C63.9534 43.2952 63.9749 43.3486 63.9749 43.4041C63.9749 43.4597 63.9534 43.5131 63.915 43.5533C63.8766 43.5934 63.8242 43.6172 63.7687 43.6197H63.7678ZM61.1901 43.6197H59.9083C59.8528 43.6172 59.8004 43.5934 59.762 43.5533C59.7235 43.5131 59.7021 43.4597 59.7021 43.4041C59.7021 43.3486 59.7235 43.2952 59.762 43.255C59.8004 43.2148 59.8528 43.1911 59.9083 43.1886H61.1914C61.2469 43.1911 61.2993 43.2148 61.3377 43.255C61.3762 43.2952 61.3976 43.3486 61.3976 43.4041C61.3976 43.4597 61.3762 43.5131 61.3377 43.5533C61.2993 43.5934 61.2469 43.6172 61.1914 43.6197H61.1901ZM58.6124 43.6197H57.3306C57.3015 43.621 57.2724 43.6164 57.2452 43.6061C57.2179 43.5959 57.193 43.5802 57.1719 43.5601C57.1508 43.5399 57.1341 43.5157 57.1226 43.4889C57.1112 43.4621 57.1053 43.4333 57.1053 43.4041C57.1053 43.375 57.1112 43.3462 57.1226 43.3194C57.1341 43.2926 57.1508 43.2684 57.1719 43.2482C57.193 43.2281 57.2179 43.2124 57.2452 43.2022C57.2724 43.1919 57.3015 43.1873 57.3306 43.1886H58.6158C58.645 43.1873 58.674 43.1919 58.7013 43.2022C58.7286 43.2124 58.7535 43.2281 58.7746 43.2482C58.7956 43.2684 58.8124 43.2926 58.8238 43.3194C58.8353 43.3462 58.8412 43.375 58.8412 43.4041C58.8412 43.4333 58.8353 43.4621 58.8238 43.4889C58.8124 43.5157 58.7956 43.5399 58.7746 43.5601C58.7535 43.5802 58.7286 43.5959 58.7013 43.6061C58.674 43.6164 58.645 43.621 58.6158 43.6197H58.6124ZM56.0458 43.6197H54.764C54.7085 43.6172 54.656 43.5934 54.6176 43.5533C54.5792 43.5131 54.5578 43.4597 54.5578 43.4041C54.5578 43.3486 54.5792 43.2952 54.6176 43.255C54.656 43.2148 54.7085 43.1911 54.764 43.1886H56.0471C56.1038 43.1903 56.1577 43.2136 56.1978 43.2537C56.2379 43.2938 56.2611 43.3477 56.2628 43.4044C56.2627 43.4614 56.24 43.5161 56.1997 43.5565C56.1593 43.5969 56.1046 43.6196 56.0475 43.6197H56.0458ZM53.4681 43.6197H52.1867C52.1312 43.6172 52.0788 43.5934 52.0404 43.5533C52.002 43.5131 51.9805 43.4597 51.9805 43.4041C51.9805 43.3486 52.002 43.2952 52.0404 43.255C52.0788 43.2148 52.1312 43.1911 52.1867 43.1886H53.4698C53.4989 43.1873 53.528 43.1919 53.5553 43.2022C53.5826 43.2124 53.6075 43.2281 53.6285 43.2482C53.6496 43.2684 53.6664 43.2926 53.6778 43.3194C53.6893 43.3462 53.6952 43.375 53.6952 43.4041C53.6952 43.4333 53.6893 43.4621 53.6778 43.4889C53.6664 43.5157 53.6496 43.5399 53.6285 43.5601C53.6075 43.5802 53.5826 43.5959 53.5553 43.6061C53.528 43.6164 53.4989 43.621 53.4698 43.6197H53.4681ZM50.8909 43.6197H49.6095C49.5804 43.621 49.5513 43.6164 49.524 43.6061C49.4967 43.5959 49.4718 43.5802 49.4508 43.5601C49.4297 43.5399 49.4129 43.5157 49.4015 43.4889C49.39 43.4621 49.3841 43.4333 49.3841 43.4041C49.3841 43.375 49.39 43.3462 49.4015 43.3194C49.4129 43.2926 49.4297 43.2684 49.4508 43.2482C49.4718 43.2281 49.4967 43.2124 49.524 43.2022C49.5513 43.1919 49.5804 43.1873 49.6095 43.1886H50.8926C50.9481 43.1911 51.0005 43.2148 51.0389 43.255C51.0773 43.2952 51.0988 43.3486 51.0988 43.4041C51.0988 43.4597 51.0773 43.5131 51.0389 43.5533C51.0005 43.5934 50.9481 43.6172 50.8926 43.6197H50.8909ZM48.2576 43.6197H47.3771C47.3232 43.6142 47.2658 43.6116 47.2102 43.6091C47.1545 43.6065 47.0964 43.6036 47.0428 43.5985H47.0318C46.9746 43.5926 46.9221 43.5643 46.8858 43.5198C46.8494 43.4753 46.8321 43.4182 46.8377 43.361C46.8436 43.3122 46.8656 43.2668 46.9002 43.2319C46.9348 43.1969 46.9801 43.1745 47.0288 43.1682H47.0254H47.0106H47.0394H47.0288C47.146 43.178 47.2837 43.1886 47.4111 43.1886H48.2631C48.3186 43.1911 48.371 43.2148 48.4094 43.255C48.4478 43.2952 48.4693 43.3486 48.4693 43.4041C48.4693 43.4597 48.4478 43.5131 48.4094 43.5533C48.371 43.5934 48.3186 43.6172 48.2631 43.6197H48.2576ZM90.7147 43.4366C90.6687 43.4377 90.6237 43.4235 90.5866 43.3962C90.5495 43.3689 90.5226 43.3301 90.51 43.2859C90.4996 43.259 90.495 43.2303 90.4965 43.2016C90.4981 43.1729 90.5057 43.1448 90.519 43.1193C90.5323 43.0937 90.5508 43.0713 90.5735 43.0535C90.5961 43.0358 90.6222 43.023 90.6502 43.0162C91.0247 42.9081 91.3808 42.7446 91.7069 42.5311C91.7431 42.5103 91.784 42.4991 91.8258 42.4984C91.8435 42.4963 91.8615 42.4985 91.8782 42.5048C91.8949 42.5111 91.9099 42.5213 91.9218 42.5345C91.9319 42.5542 91.9372 42.5761 91.9372 42.5982C91.9372 42.6204 91.9319 42.6422 91.9218 42.6619C91.9515 42.7093 91.9613 42.7664 91.9492 42.821C91.937 42.8755 91.9038 42.923 91.8568 42.9533C91.8241 42.9754 91.7876 42.9958 91.7528 43.0191C91.7179 43.0425 91.6835 43.0616 91.6521 43.0828H91.6096C91.3454 43.2262 91.067 43.3418 90.7789 43.4277C90.7595 43.4346 90.7389 43.4369 90.7186 43.4345L90.7147 43.4366ZM45.425 43.0136C45.3995 43.0153 45.3739 43.0117 45.3499 43.003C45.1716 42.937 44.9985 42.8576 44.8321 42.7656H44.7896L44.779 42.7549L44.768 42.7443C44.74 42.7172 44.7092 42.693 44.6762 42.6721L44.6712 42.6687C44.6475 42.651 44.6277 42.6288 44.6127 42.6034C44.5978 42.5779 44.588 42.5497 44.5841 42.5205C44.5806 42.4933 44.5826 42.4658 44.5899 42.4394C44.5972 42.413 44.6096 42.3883 44.6266 42.3667C44.6472 42.3407 44.6734 42.3195 44.7032 42.3048C44.733 42.2901 44.7657 42.2823 44.799 42.2818H44.8083C44.8164 42.2818 44.8245 42.2818 44.8262 42.2771C44.8279 42.2725 44.819 42.255 44.7268 42.1862C44.9722 42.3509 45.2352 42.4878 45.5108 42.5944C45.5633 42.6165 45.605 42.6582 45.6272 42.7107C45.6493 42.7631 45.6501 42.8221 45.6293 42.8751C45.6117 42.9151 45.5832 42.9493 45.5471 42.9737C45.511 42.9982 45.4687 43.012 45.425 43.0136ZM44.7128 42.1756C44.6406 42.1272 44.5684 42.0754 44.4974 42.0219C44.6032 42.0953 44.6673 42.1412 44.7132 42.1752L44.7128 42.1756ZM92.7564 42.1187C92.7049 42.1172 92.6554 42.0982 92.6162 42.0648C92.595 42.0482 92.5774 42.0274 92.5645 42.0038C92.5516 41.9801 92.5438 41.954 92.5415 41.9271C92.5388 41.8975 92.5421 41.8677 92.5513 41.8394C92.5605 41.8112 92.5754 41.7851 92.595 41.7628C92.8542 41.4705 93.072 41.1439 93.2423 40.7923C93.2603 40.7564 93.2879 40.7262 93.3222 40.7052C93.3564 40.6842 93.3958 40.6731 93.436 40.6733C93.4524 40.6738 93.4687 40.6757 93.4848 40.6789C93.5008 40.6821 93.517 40.6839 93.5332 40.6844C93.5588 40.697 93.5817 40.7145 93.6004 40.736C93.6192 40.7575 93.6335 40.7825 93.6426 40.8096C93.6516 40.8366 93.6552 40.8652 93.6531 40.8937C93.6511 40.9221 93.6434 40.9499 93.6305 40.9753C93.4388 41.3596 93.1997 41.7184 92.9186 42.0431C92.8996 42.0677 92.8749 42.0875 92.8467 42.1006C92.8185 42.1138 92.7875 42.12 92.7564 42.1187ZM43.4407 40.9753C43.4075 40.9748 43.3748 40.9669 43.3449 40.9522C43.3151 40.9375 43.2889 40.9164 43.2683 40.8904C43.2668 40.8904 43.2654 40.8901 43.2641 40.8895C43.2628 40.889 43.2616 40.8882 43.2606 40.8871C43.2596 40.8861 43.2588 40.8849 43.2583 40.8835C43.2578 40.8822 43.2576 40.8808 43.2577 40.8793L43.247 40.8687L43.2356 40.859V40.8267C43.2027 40.7604 43.1743 40.692 43.1506 40.622C43.1332 40.5678 43.1366 40.509 43.1602 40.4572C43.1837 40.4053 43.2257 40.3641 43.278 40.3416C43.3022 40.3329 43.328 40.3293 43.3536 40.331H43.3838C43.3909 40.3313 43.3979 40.3303 43.4046 40.328C43.2647 40.0989 43.1466 39.8571 43.0517 39.606C43.3745 40.1467 43.4297 40.2754 43.4165 40.3145C43.4156 40.3173 43.414 40.3198 43.412 40.322C43.4099 40.3241 43.4074 40.3258 43.4046 40.3268C43.4683 40.4304 43.5384 40.5328 43.6123 40.6305C43.6299 40.6527 43.6427 40.6783 43.65 40.7057C43.6573 40.7331 43.6589 40.7617 43.6548 40.7897C43.6458 40.8464 43.6154 40.8975 43.5698 40.9324C43.5329 40.961 43.4874 40.9761 43.4407 40.9753ZM93.8029 39.9403H93.7707C93.7156 39.9288 93.6671 39.8968 93.635 39.8506C93.6029 39.8045 93.5898 39.7478 93.5982 39.6922C93.6322 39.4637 93.6502 39.2331 93.6522 39.002V38.4737C93.6522 38.4165 93.6749 38.3616 93.7154 38.3211C93.7558 38.2806 93.8107 38.2579 93.8679 38.2579C93.8921 38.2574 93.9162 38.262 93.9385 38.2713C93.9609 38.2806 93.9811 38.2944 93.9979 38.3119C94.0602 38.3954 94.087 38.5 94.0726 38.6032V39.1749C94.0708 39.3702 94.0528 39.5649 94.0187 39.7572C94.0102 39.8083 93.9839 39.8548 93.9444 39.8883C93.9049 39.9218 93.8548 39.9403 93.8029 39.9403ZM43.1064 39.3257H43.0848C43.0314 39.3248 42.9802 39.3047 42.9405 39.269C42.9009 39.2334 42.8755 39.1845 42.869 39.1316C42.86 39.0994 42.8564 39.066 42.8584 39.0326V38.0855C42.8584 38.0282 42.8811 37.9734 42.9216 37.9329C42.9621 37.8924 43.0169 37.8697 43.0742 37.8697C43.1124 37.8712 43.1502 37.8783 43.1863 37.8909C43.2063 37.8982 43.2271 37.9027 43.2483 37.9045C43.2776 37.9045 43.2908 37.8846 43.2908 37.8374V38.765C43.2888 38.8766 43.2925 38.9881 43.3018 39.0993C43.3042 39.1271 43.301 39.155 43.2924 39.1815C43.2838 39.208 43.27 39.2325 43.2518 39.2536C43.2336 39.2747 43.2114 39.292 43.1864 39.3043C43.1614 39.3167 43.1343 39.324 43.1064 39.3257ZM93.8683 37.4059C93.8111 37.4059 93.7562 37.3832 93.7158 37.3427C93.6753 37.3022 93.6526 37.2474 93.6526 37.1901V35.907C93.6513 35.8779 93.6559 35.8489 93.6662 35.8216C93.6764 35.7943 93.6921 35.7694 93.7122 35.7483C93.7324 35.7273 93.7566 35.7105 93.7834 35.6991C93.8102 35.6876 93.839 35.6817 93.8681 35.6817C93.8973 35.6817 93.9261 35.6876 93.9529 35.6991C93.9797 35.7105 94.0039 35.7273 94.024 35.7483C94.0442 35.7694 94.0599 35.7943 94.0701 35.8216C94.0804 35.8489 94.085 35.8779 94.0837 35.907V37.1901C94.0837 37.2473 94.061 37.3021 94.0206 37.3426C93.9803 37.383 93.9255 37.4058 93.8683 37.4059ZM43.0742 37.0071C43.0169 37.0071 42.9621 36.9844 42.9216 36.9439C42.8811 36.9034 42.8584 36.8485 42.8584 36.7913V35.5074C42.8609 35.4519 42.8847 35.3994 42.9248 35.361C42.965 35.3226 43.0184 35.3012 43.074 35.3012C43.1295 35.3012 43.1829 35.3226 43.2231 35.361C43.2633 35.3994 43.287 35.4519 43.2895 35.5074V36.7905C43.2896 36.8188 43.2841 36.847 43.2734 36.8732C43.2626 36.8995 43.2468 36.9233 43.2268 36.9434C43.2068 36.9636 43.183 36.9795 43.1568 36.9905C43.1306 37.0014 43.1025 37.007 43.0742 37.0071ZM93.8683 34.8278C93.8111 34.8277 93.7562 34.8049 93.7157 34.7643C93.6753 34.7238 93.6526 34.6689 93.6526 34.6116V33.3298C93.6513 33.3007 93.6559 33.2716 93.6662 33.2443C93.6764 33.217 93.6921 33.1921 93.7122 33.1711C93.7324 33.15 93.7566 33.1333 93.7834 33.1218C93.8102 33.1104 93.839 33.1045 93.8681 33.1045C93.8973 33.1045 93.9261 33.1104 93.9529 33.1218C93.9797 33.1333 94.0039 33.15 94.024 33.1711C94.0442 33.1921 94.0599 33.217 94.0701 33.2443C94.0804 33.2716 94.085 33.3007 94.0837 33.3298V34.6129C94.0833 34.6699 94.0605 34.7244 94.0202 34.7646C93.9799 34.8049 93.9253 34.8276 93.8683 34.8278ZM43.0742 34.4298C43.0169 34.4297 42.962 34.4069 42.9216 34.3664C42.8811 34.3258 42.8584 34.2709 42.8584 34.2136V32.9305C42.8571 32.9014 42.8617 32.8724 42.872 32.8451C42.8822 32.8178 42.8979 32.7929 42.918 32.7718C42.9382 32.7508 42.9624 32.734 42.9892 32.7226C43.016 32.7111 43.0448 32.7052 43.074 32.7052C43.1031 32.7052 43.1319 32.7111 43.1587 32.7226C43.1855 32.734 43.2097 32.7508 43.2299 32.7718C43.25 32.7929 43.2657 32.8178 43.2759 32.8451C43.2862 32.8724 43.2908 32.9014 43.2895 32.9305V34.2136C43.2895 34.2708 43.2668 34.3257 43.2265 34.3662C43.1861 34.4067 43.1314 34.4296 43.0742 34.4298ZM93.8683 32.2514C93.8111 32.2514 93.7562 32.2287 93.7158 32.1882C93.6753 32.1477 93.6526 32.0929 93.6526 32.0356V30.7504C93.6513 30.7213 93.6559 30.6922 93.6662 30.6649C93.6764 30.6377 93.6921 30.6127 93.7122 30.5917C93.7324 30.5706 93.7566 30.5539 93.7834 30.5424C93.8102 30.531 93.839 30.5251 93.8681 30.5251C93.8973 30.5251 93.9261 30.531 93.9529 30.5424C93.9797 30.5539 94.0039 30.5706 94.024 30.5917C94.0442 30.6127 94.0599 30.6377 94.0701 30.6649C94.0804 30.6922 94.085 30.7213 94.0837 30.7504V32.0339C94.0839 32.0624 94.0785 32.0906 94.0678 32.1169C94.0571 32.1433 94.0412 32.1672 94.0212 32.1875C94.0012 32.2077 93.9774 32.2237 93.9512 32.2347C93.9249 32.2457 93.8968 32.2513 93.8683 32.2514ZM43.0742 31.8628C43.017 31.8628 42.9622 31.8401 42.9218 31.7997C42.8813 31.7594 42.8585 31.7046 42.8584 31.6474V30.3639C42.8584 30.3356 42.864 30.3075 42.8748 30.2813C42.8857 30.2552 42.9016 30.2314 42.9216 30.2113C42.9416 30.1913 42.9654 30.1754 42.9916 30.1646C43.0178 30.1537 43.0458 30.1481 43.0742 30.1481C43.1298 30.1472 43.1835 30.1681 43.2239 30.2064C43.2642 30.2447 43.2879 30.2973 43.2899 30.3529V31.6466C43.29 31.675 43.2844 31.7031 43.2736 31.7293C43.2628 31.7555 43.2469 31.7793 43.2269 31.7994C43.2068 31.8195 43.183 31.8354 43.1568 31.8463C43.1306 31.8572 43.1025 31.8628 43.0742 31.8628ZM93.8683 29.6737C93.84 29.6737 93.8119 29.6681 93.7858 29.6573C93.7596 29.6465 93.7358 29.6306 93.7158 29.6105C93.6957 29.5905 93.6798 29.5667 93.669 29.5405C93.6582 29.5143 93.6526 29.4863 93.6526 29.458V28.1748C93.6513 28.1457 93.6559 28.1167 93.6662 28.0894C93.6764 28.0621 93.6921 28.0372 93.7122 28.0161C93.7324 27.9951 93.7566 27.9783 93.7834 27.9669C93.8102 27.9554 93.839 27.9495 93.8681 27.9495C93.8973 27.9495 93.9261 27.9554 93.9529 27.9669C93.9797 27.9783 94.0039 27.9951 94.024 28.0161C94.0442 28.0372 94.0599 28.0621 94.0701 28.0894C94.0804 28.1167 94.085 28.1457 94.0837 28.1748V29.458C94.0837 29.5151 94.061 29.5699 94.0206 29.6104C93.9803 29.6508 93.9255 29.6736 93.8683 29.6737ZM43.0742 29.2855C43.017 29.2854 42.9622 29.2626 42.9217 29.2222C42.8813 29.1818 42.8585 29.1269 42.8584 29.0698V27.7866C42.8609 27.7311 42.8847 27.6787 42.9248 27.6403C42.965 27.6019 43.0184 27.5805 43.074 27.5805C43.1295 27.5805 43.1829 27.6019 43.2231 27.6403C43.2633 27.6787 43.287 27.7311 43.2895 27.7866V29.0698C43.2894 29.1269 43.2667 29.1816 43.2263 29.222C43.186 29.2625 43.1313 29.2853 43.0742 29.2855ZM93.8683 27.1071C93.8111 27.1071 93.7562 27.0843 93.7158 27.0439C93.6753 27.0034 93.6526 26.9485 93.6526 26.8913V25.6082C93.6513 25.5791 93.6559 25.55 93.6662 25.5227C93.6764 25.4955 93.6921 25.4706 93.7122 25.4495C93.7324 25.4284 93.7566 25.4117 93.7834 25.4002C93.8102 25.3888 93.839 25.3829 93.8681 25.3829C93.8973 25.3829 93.9261 25.3888 93.9529 25.4002C93.9797 25.4117 94.0039 25.4284 94.024 25.4495C94.0442 25.4706 94.0599 25.4955 94.0701 25.5227C94.0804 25.55 94.085 25.5791 94.0837 25.6082V26.8917C94.0836 26.9488 94.0608 27.0035 94.0205 27.0439C93.9801 27.0842 93.9254 27.107 93.8683 27.1071ZM43.0742 26.7083C43.0458 26.7083 43.0178 26.7027 42.9916 26.6918C42.9654 26.681 42.9416 26.6651 42.9216 26.6451C42.9016 26.625 42.8857 26.6012 42.8748 26.5751C42.864 26.5489 42.8584 26.5208 42.8584 26.4925V25.2094C42.8571 25.1803 42.8617 25.1512 42.872 25.1239C42.8822 25.0967 42.8979 25.0717 42.918 25.0507C42.9382 25.0296 42.9624 25.0129 42.9892 25.0014C43.016 24.99 43.0448 24.9841 43.074 24.9841C43.1031 24.9841 43.1319 24.99 43.1587 25.0014C43.1855 25.0129 43.2097 25.0296 43.2299 25.0507C43.25 25.0717 43.2657 25.0967 43.2759 25.1239C43.2862 25.1512 43.2908 25.1803 43.2895 25.2094V26.4925C43.2895 26.5496 43.2668 26.6045 43.2265 26.6449C43.1861 26.6854 43.1313 26.7081 43.0742 26.7083ZM93.8683 24.5298C93.8111 24.5298 93.7562 24.5071 93.7158 24.4666C93.6753 24.4262 93.6526 24.3713 93.6526 24.3141V23.031C93.6513 23.0018 93.6559 22.9728 93.6662 22.9455C93.6764 22.9182 93.6921 22.8933 93.7122 22.8722C93.7324 22.8512 93.7566 22.8344 93.7834 22.823C93.8102 22.8115 93.839 22.8056 93.8681 22.8056C93.8973 22.8056 93.9261 22.8115 93.9529 22.823C93.9797 22.8344 94.0039 22.8512 94.024 22.8722C94.0442 22.8933 94.0599 22.9182 94.0701 22.9455C94.0804 22.9728 94.085 23.0018 94.0837 23.031V24.3141C94.0837 24.3712 94.061 24.426 94.0206 24.4665C93.9803 24.5069 93.9255 24.5297 93.8683 24.5298ZM43.0742 24.1306C43.0169 24.1306 42.9621 24.1078 42.9216 24.0674C42.8811 24.0269 42.8584 23.972 42.8584 23.9148V22.6317C42.8571 22.6026 42.8617 22.5735 42.872 22.5462C42.8822 22.519 42.8979 22.4941 42.918 22.473C42.9382 22.4519 42.9624 22.4352 42.9892 22.4237C43.016 22.4123 43.0448 22.4064 43.074 22.4064C43.1031 22.4064 43.1319 22.4123 43.1587 22.4237C43.1855 22.4352 43.2097 22.4519 43.2299 22.473C43.25 22.4941 43.2657 22.519 43.2759 22.5462C43.2862 22.5735 43.2908 22.6026 43.2895 22.6317V23.9148C43.2895 23.972 43.2668 24.0268 43.2265 24.0672C43.1861 24.1077 43.1313 24.1305 43.0742 24.1306ZM93.8683 21.9526C93.8111 21.9525 93.7563 21.9297 93.7159 21.8893C93.6755 21.8488 93.6527 21.794 93.6526 21.7368V20.4533C93.6513 20.4242 93.6559 20.3951 93.6662 20.3678C93.6764 20.3405 93.6921 20.3156 93.7122 20.2946C93.7324 20.2735 93.7566 20.2567 93.7834 20.2453C93.8102 20.2338 93.839 20.2279 93.8681 20.2279C93.8973 20.2279 93.9261 20.2338 93.9529 20.2453C93.9797 20.2567 94.0039 20.2735 94.024 20.2946C94.0442 20.3156 94.0599 20.3405 94.0701 20.3678C94.0804 20.3951 94.085 20.4242 94.0837 20.4533V21.7364C94.0837 21.7936 94.061 21.8484 94.0207 21.889C93.9803 21.9295 93.9255 21.9523 93.8683 21.9526ZM43.0742 21.5639C43.017 21.5639 42.9622 21.5413 42.9218 21.5009C42.8813 21.4605 42.8585 21.4058 42.8584 21.3486V20.0655C42.8584 20.0082 42.8811 19.9533 42.9216 19.9128C42.962 19.8723 43.0169 19.8494 43.0742 19.8493C43.1028 19.8483 43.1314 19.8532 43.158 19.8637C43.1847 19.8742 43.2089 19.8901 43.2291 19.9104C43.2494 19.9307 43.2652 19.9549 43.2757 19.9816C43.2862 20.0083 43.291 20.0369 43.2899 20.0655V21.3486C43.2898 21.4058 43.267 21.4605 43.2266 21.5009C43.1861 21.5413 43.1313 21.5639 43.0742 21.5639ZM93.8683 19.3749C93.8111 19.3749 93.7562 19.3522 93.7158 19.3117C93.6753 19.2712 93.6526 19.2164 93.6526 19.1591V17.876C93.6513 17.8469 93.6559 17.8178 93.6662 17.7906C93.6764 17.7633 93.6921 17.7384 93.7122 17.7173C93.7324 17.6962 93.7566 17.6795 93.7834 17.668C93.8102 17.6566 93.839 17.6507 93.8681 17.6507C93.8973 17.6507 93.9261 17.6566 93.9529 17.668C93.9797 17.6795 94.0039 17.6962 94.024 17.7173C94.0442 17.7384 94.0599 17.7633 94.0701 17.7906C94.0804 17.8178 94.085 17.8469 94.0837 17.876V19.1596C94.0836 19.2166 94.0608 19.2713 94.0205 19.3117C93.9801 19.3521 93.9254 19.3748 93.8683 19.3749ZM43.0742 18.9854C43.0175 18.9854 42.9632 18.9632 42.9228 18.9234C42.8824 18.8837 42.8593 18.8297 42.8584 18.773V17.4878C42.8609 17.4323 42.8847 17.3799 42.9248 17.3415C42.965 17.3031 43.0184 17.2816 43.074 17.2816C43.1295 17.2816 43.1829 17.3031 43.2231 17.3415C43.2633 17.3799 43.287 17.4323 43.2895 17.4878V18.773C43.2886 18.8296 43.2655 18.8836 43.2253 18.9233C43.185 18.963 43.1307 18.9853 43.0742 18.9854ZM93.8683 16.8087C93.8111 16.8086 93.7562 16.7857 93.7157 16.7452C93.6753 16.7047 93.6526 16.6498 93.6526 16.5925V15.3094C93.6513 15.2803 93.6559 15.2512 93.6662 15.2239C93.6764 15.1966 93.6921 15.1717 93.7122 15.1507C93.7324 15.1296 93.7566 15.1129 93.7834 15.1014C93.8102 15.09 93.839 15.0841 93.8681 15.0841C93.8973 15.0841 93.9261 15.09 93.9529 15.1014C93.9797 15.1129 94.0039 15.1296 94.024 15.1507C94.0442 15.1717 94.0599 15.1966 94.0701 15.2239C94.0804 15.2512 94.085 15.2803 94.0837 15.3094V16.5925C94.0837 16.6497 94.061 16.7045 94.0207 16.7451C93.9803 16.7856 93.9255 16.8085 93.8683 16.8087ZM43.0848 16.3122C43.0277 16.3122 42.973 16.2896 42.9325 16.2493C42.8921 16.209 42.8693 16.1543 42.869 16.0973V14.8995C42.8755 14.8466 42.9009 14.7977 42.9405 14.7621C42.9802 14.7264 43.0314 14.7063 43.0848 14.7054C43.0848 14.7054 43.0963 14.7054 43.1171 14.6082C43.1724 14.6138 43.2234 14.6404 43.2595 14.6827C43.2957 14.7249 43.3142 14.7795 43.3112 14.835C43.3023 14.9318 43.2988 15.0291 43.3006 15.1263V16.0973C43.3002 16.1543 43.2773 16.2089 43.2369 16.2492C43.1965 16.2894 43.1418 16.3121 43.0848 16.3122ZM93.7163 14.3062C93.6688 14.3067 93.6225 14.291 93.5853 14.2615C93.548 14.2321 93.522 14.1907 93.5116 14.1444C93.4067 13.7688 93.2506 13.4095 93.0478 13.0766C93.0218 13.0274 93.0151 12.9704 93.029 12.9166C93.0429 12.8627 93.0764 12.816 93.1229 12.7856C93.1545 12.7637 93.1923 12.7523 93.2308 12.7534C93.2992 12.7534 93.3765 12.7767 93.4789 12.9475V12.9687C93.6191 13.2095 93.7382 13.462 93.8348 13.7234C93.8454 13.7341 93.8454 13.7341 93.8454 13.7447V13.7995C93.8703 13.8618 93.8912 13.9256 93.9078 13.9906L93.921 14.0365C93.9287 14.0622 93.9312 14.0893 93.9282 14.116C93.9252 14.1427 93.9168 14.1685 93.9036 14.1919C93.8895 14.2172 93.8703 14.2394 93.8474 14.2571C93.8245 14.2749 93.7983 14.2878 93.7702 14.2951C93.7537 14.3039 93.735 14.3077 93.7163 14.3062ZM43.5057 13.7133C43.48 13.715 43.4543 13.7114 43.4301 13.7026C43.3767 13.6804 43.3336 13.6391 43.309 13.5867C43.2962 13.5613 43.2888 13.5334 43.2873 13.505C43.2859 13.4765 43.2904 13.4481 43.3006 13.4215L43.3188 13.3718C43.3452 13.297 43.3758 13.2238 43.4106 13.1526V13.0337C43.5131 12.8556 43.6247 12.6827 43.7448 12.5159C43.7656 12.4899 43.7918 12.4687 43.8217 12.454C43.8516 12.4394 43.8844 12.4315 43.9177 12.431H43.941C43.9835 12.431 44.0493 12.4085 44.2197 12.2467C44.2645 12.2817 44.2939 12.3328 44.3019 12.3891C44.3098 12.4454 44.2955 12.5026 44.2621 12.5486C44.0298 12.8618 43.8438 13.2069 43.71 13.5731C43.6937 13.6141 43.6656 13.6493 43.6292 13.6743C43.5928 13.6993 43.5498 13.7128 43.5057 13.7133ZM92.4667 12.2254C92.4391 12.2273 92.4114 12.2235 92.3854 12.2141C92.3594 12.2048 92.3356 12.1901 92.3155 12.1711C92.0347 11.9017 91.7148 11.6763 91.3667 11.5025C91.3411 11.4899 91.3182 11.4724 91.2995 11.4509C91.2807 11.4294 91.2664 11.4044 91.2573 11.3774C91.2483 11.3503 91.2447 11.3217 91.2468 11.2933C91.2489 11.2648 91.2566 11.2371 91.2694 11.2116C91.2885 11.1765 91.3165 11.147 91.3505 11.1261C91.3846 11.1053 91.4236 11.0937 91.4635 11.0927C91.4962 11.0927 91.5311 11.1058 92.0131 11.4163L92.0458 11.4325L92.0781 11.4482H92.132L92.1427 11.4592L92.1533 11.4698L92.1639 11.4805L92.1749 11.4911L92.1856 11.5017C92.3367 11.6111 92.4807 11.7299 92.6167 11.8576C92.6362 11.8751 92.6521 11.8963 92.6634 11.92C92.6747 11.9437 92.6812 11.9694 92.6825 11.9957C92.6864 12.0554 92.6666 12.1144 92.6273 12.1596C92.584 12.201 92.5266 12.2245 92.4667 12.2254ZM44.7782 11.988C44.7449 11.9875 44.7121 11.9796 44.6822 11.965C44.6523 11.9503 44.6261 11.9291 44.6053 11.9031C44.5871 11.8812 44.5734 11.8558 44.5651 11.8286C44.5569 11.8013 44.5542 11.7726 44.5572 11.7443C44.5603 11.7159 44.569 11.6885 44.5829 11.6636C44.5968 11.6387 44.6155 11.6169 44.638 11.5994C44.9739 11.3307 45.3474 11.1128 45.7466 10.9525C45.7712 10.9432 45.7976 10.9394 45.8239 10.9415C45.8683 10.9408 45.9118 10.9539 45.9485 10.979C45.9852 11.0041 46.0131 11.04 46.0286 11.0816C46.0492 11.1347 46.0483 11.1936 46.026 11.246C46.0154 11.2721 45.9996 11.2957 45.9797 11.3156C45.9598 11.3355 45.9361 11.3513 45.9101 11.362C45.5505 11.509 45.2131 11.7051 44.9073 11.9447C44.8711 11.9745 44.8251 11.9899 44.7782 11.988ZM90.2981 11.125H90.2556C89.9964 11.0726 89.7325 11.0473 89.4681 11.0494H88.185C88.1295 11.0469 88.0771 11.0231 88.0387 10.9829C88.0003 10.9428 87.9789 10.8894 87.9789 10.8338C87.9789 10.7782 88.0003 10.7248 88.0387 10.6847C88.0771 10.6445 88.1295 10.6207 88.185 10.6183H89.4681C89.4792 10.6183 89.4792 10.6183 89.5977 10.6289H89.6729C89.8978 10.6368 90.1219 10.6617 90.3431 10.7032C90.3708 10.708 90.3972 10.7183 90.4209 10.7334C90.4446 10.7485 90.4651 10.7681 90.4811 10.7912C90.4972 10.8143 90.5084 10.8403 90.5144 10.8678C90.5203 10.8952 90.5207 10.9236 90.5155 10.9512C90.5032 10.9999 90.4752 11.0432 90.436 11.0746C90.3967 11.106 90.3483 11.1236 90.2981 11.125ZM47.2905 11.0604H47.2692C47.2159 11.0594 47.1648 11.0392 47.1252 11.0036C47.0855 10.9679 47.0601 10.9192 47.0535 10.8663C47.0478 10.8091 47.065 10.7519 47.1014 10.7074C47.1378 10.6629 47.1904 10.6347 47.2476 10.6289C47.2638 10.6284 47.28 10.6265 47.296 10.6234C47.3119 10.6203 47.3281 10.6186 47.3444 10.6183H48.2716C48.3506 10.6268 48.4264 10.6543 48.4924 10.6985C48.5783 10.745 48.6666 10.7867 48.757 10.8234C48.757 10.8517 48.7515 10.8798 48.7406 10.906C48.7298 10.9321 48.7139 10.9559 48.6938 10.976C48.6534 11.0164 48.5985 11.0392 48.5413 11.0392H47.7343C47.5793 11.0387 47.4242 11.0498 47.2905 11.0604ZM86.9007 11.0494H85.6176C85.5884 11.0506 85.5594 11.046 85.5321 11.0358C85.5048 11.0255 85.4799 11.0099 85.4588 10.9897C85.4378 10.9696 85.421 10.9454 85.4096 10.9186C85.3981 10.8918 85.3922 10.8629 85.3922 10.8338C85.3922 10.8047 85.3981 10.7758 85.4096 10.749C85.421 10.7222 85.4378 10.698 85.4588 10.6779C85.4799 10.6577 85.5048 10.6421 85.5321 10.6318C85.5594 10.6216 85.5884 10.617 85.6176 10.6183H86.9028C86.9583 10.6207 87.0107 10.6445 87.0491 10.6847C87.0875 10.7248 87.109 10.7782 87.109 10.8338C87.109 10.8894 87.0875 10.9428 87.0491 10.9829C87.0107 11.0231 86.9583 11.0469 86.9028 11.0494H86.9007ZM84.323 11.0494H83.0399C82.9844 11.0469 82.9319 11.0231 82.8935 10.9829C82.8551 10.9428 82.8337 10.8894 82.8337 10.8338C82.8337 10.7782 82.8551 10.7248 82.8935 10.6847C82.9319 10.6445 82.9844 10.6207 83.0399 10.6183H84.323C84.3521 10.617 84.3812 10.6216 84.4084 10.6318C84.4357 10.6421 84.4606 10.6577 84.4817 10.6779C84.5028 10.698 84.5195 10.7222 84.531 10.749C84.5424 10.7758 84.5483 10.8047 84.5483 10.8338C84.5483 10.8629 84.5424 10.8918 84.531 10.9186C84.5195 10.9454 84.5028 10.9696 84.4817 10.9897C84.4606 11.0099 84.4357 11.0255 84.4084 11.0358C84.3812 11.046 84.3521 11.0506 84.323 11.0494ZM81.7457 11.0494H80.4626C80.4335 11.0506 80.4044 11.046 80.3772 11.0358C80.3499 11.0255 80.325 11.0099 80.3039 10.9897C80.2829 10.9696 80.2661 10.9454 80.2546 10.9186C80.2432 10.8918 80.2373 10.8629 80.2373 10.8338C80.2373 10.8047 80.2432 10.7758 80.2546 10.749C80.2661 10.7222 80.2829 10.698 80.3039 10.6779C80.325 10.6577 80.3499 10.6421 80.3772 10.6318C80.4044 10.6216 80.4335 10.617 80.4626 10.6183H81.7457C81.8012 10.6207 81.8537 10.6445 81.8921 10.6847C81.9305 10.7248 81.9519 10.7782 81.9519 10.8338C81.9519 10.8894 81.9305 10.9428 81.8921 10.9829C81.8537 11.0231 81.8012 11.0469 81.7457 11.0494ZM79.168 11.0494H77.8854C77.8563 11.0506 77.8272 11.046 77.7999 11.0358C77.7726 11.0255 77.7477 11.0099 77.7267 10.9897C77.7056 10.9696 77.6888 10.9454 77.6774 10.9186C77.6659 10.8918 77.66 10.8629 77.66 10.8338C77.66 10.8047 77.6659 10.7758 77.6774 10.749C77.6888 10.7222 77.7056 10.698 77.7267 10.6779C77.7477 10.6577 77.7726 10.6421 77.7999 10.6318C77.8272 10.6216 77.8563 10.617 77.8854 10.6183H79.1685C79.1976 10.617 79.2267 10.6216 79.2539 10.6318C79.2812 10.6421 79.3061 10.6577 79.3272 10.6779C79.3482 10.698 79.365 10.7222 79.3765 10.749C79.3879 10.7758 79.3938 10.8047 79.3938 10.8338C79.3938 10.8629 79.3879 10.8918 79.3765 10.9186C79.365 10.9454 79.3482 10.9696 79.3272 10.9897C79.3061 11.0099 79.2812 11.0255 79.2539 11.0358C79.2267 11.046 79.1976 11.0506 79.1685 11.0494H79.168ZM76.6014 11.0494H75.3187C75.2896 11.0506 75.2605 11.046 75.2333 11.0358C75.206 11.0255 75.1811 11.0099 75.16 10.9897C75.139 10.9696 75.1222 10.9454 75.1108 10.9186C75.0993 10.8918 75.0934 10.8629 75.0934 10.8338C75.0934 10.8047 75.0993 10.7758 75.1108 10.749C75.1222 10.7222 75.139 10.698 75.16 10.6779C75.1811 10.6577 75.206 10.6421 75.2333 10.6318C75.2605 10.6216 75.2896 10.617 75.3187 10.6183H76.6018C76.6585 10.62 76.7124 10.6432 76.7525 10.6833C76.7926 10.7234 76.8159 10.7773 76.8176 10.834C76.8175 10.8911 76.7948 10.9458 76.7544 10.9862C76.714 11.0265 76.6593 11.0492 76.6023 11.0494H76.6014ZM74.0237 11.0494H72.7304C72.7013 11.0506 72.6723 11.046 72.645 11.0358C72.6177 11.0255 72.5928 11.0099 72.5717 10.9897C72.5507 10.9696 72.5339 10.9454 72.5225 10.9186C72.511 10.8918 72.5051 10.8629 72.5051 10.8338C72.5051 10.8047 72.511 10.7758 72.5225 10.749C72.5339 10.7222 72.5507 10.698 72.5717 10.6779C72.5928 10.6577 72.6177 10.6421 72.645 10.6318C72.6723 10.6216 72.7013 10.617 72.7304 10.6183H74.0246C74.0801 10.6207 74.1325 10.6445 74.1709 10.6847C74.2093 10.7248 74.2308 10.7782 74.2308 10.8338C74.2308 10.8894 74.2093 10.9428 74.1709 10.9829C74.1325 11.0231 74.0801 11.0469 74.0246 11.0494H74.0237ZM71.4461 11.0494H70.1638C70.1347 11.0506 70.1056 11.046 70.0783 11.0358C70.0511 11.0255 70.0261 11.0099 70.0051 10.9897C69.984 10.9696 69.9673 10.9454 69.9558 10.9186C69.9444 10.8918 69.9385 10.8629 69.9385 10.8338C69.9385 10.8047 69.9444 10.7758 69.9558 10.749C69.9673 10.7222 69.984 10.698 70.0051 10.6779C70.0261 10.6577 70.0511 10.6421 70.0783 10.6318C70.1056 10.6216 70.1347 10.617 70.1638 10.6183H71.4469C71.476 10.617 71.5051 10.6216 71.5324 10.6318C71.5596 10.6421 71.5846 10.6577 71.6056 10.6779C71.6267 10.698 71.6434 10.7222 71.6549 10.749C71.6663 10.7758 71.6722 10.8047 71.6722 10.8338C71.6722 10.8629 71.6663 10.8918 71.6549 10.9186C71.6434 10.9454 71.6267 10.9696 71.6056 10.9897C71.5846 11.0099 71.5596 11.0255 71.5324 11.0358C71.5051 11.046 71.476 11.0506 71.4469 11.0494H71.4461ZM68.8688 11.0494H67.5865C67.5574 11.0506 67.5284 11.046 67.5011 11.0358C67.4738 11.0255 67.4489 11.0099 67.4278 10.9897C67.4068 10.9696 67.39 10.9454 67.3786 10.9186C67.3671 10.8918 67.3612 10.8629 67.3612 10.8338C67.3612 10.8047 67.3671 10.7758 67.3786 10.749C67.39 10.7222 67.4068 10.698 67.4278 10.6779C67.4489 10.6577 67.4738 10.6421 67.5011 10.6318C67.5284 10.6216 67.5574 10.617 67.5865 10.6183H68.8697C68.9252 10.6207 68.9776 10.6445 69.016 10.6847C69.0544 10.7248 69.0758 10.7782 69.0758 10.8338C69.0758 10.8894 69.0544 10.9428 69.016 10.9829C68.9776 11.0231 68.9252 11.0469 68.8697 11.0494H68.8688ZM66.3017 11.0494H65.0199C64.9908 11.0506 64.9617 11.046 64.9344 11.0358C64.9072 11.0255 64.8823 11.0099 64.8612 10.9897C64.8401 10.9696 64.8234 10.9454 64.8119 10.9186C64.8005 10.8918 64.7946 10.8629 64.7946 10.8338C64.7946 10.8047 64.8005 10.7758 64.8119 10.749C64.8234 10.7222 64.8401 10.698 64.8612 10.6779C64.8823 10.6577 64.9072 10.6421 64.9344 10.6318C64.9617 10.6216 64.9908 10.617 65.0199 10.6183H66.3034C66.3601 10.6202 66.4138 10.6435 66.4539 10.6836C66.494 10.7236 66.5173 10.7774 66.5192 10.834C66.519 10.8911 66.4962 10.9458 66.4557 10.9862C66.4153 11.0265 66.3606 11.0492 66.3034 11.0494H66.3017ZM63.7245 11.0494H62.4427C62.4135 11.0506 62.3845 11.046 62.3572 11.0358C62.3299 11.0255 62.305 11.0099 62.2839 10.9897C62.2629 10.9696 62.2461 10.9454 62.2347 10.9186C62.2232 10.8918 62.2173 10.8629 62.2173 10.8338C62.2173 10.8047 62.2232 10.7758 62.2347 10.749C62.2461 10.7222 62.2629 10.698 62.2839 10.6779C62.305 10.6577 62.3299 10.6421 62.3572 10.6318C62.3845 10.6216 62.4135 10.617 62.4427 10.6183H63.7258C63.7813 10.6207 63.8337 10.6445 63.8721 10.6847C63.9105 10.7248 63.932 10.7782 63.932 10.8338C63.932 10.8894 63.9105 10.9428 63.8721 10.9829C63.8337 11.0231 63.7813 11.0469 63.7258 11.0494H63.7245ZM61.1468 11.0494H59.865C59.8095 11.0469 59.757 11.0231 59.7186 10.9829C59.6802 10.9428 59.6588 10.8894 59.6588 10.8338C59.6588 10.7782 59.6802 10.7248 59.7186 10.6847C59.757 10.6445 59.8095 10.6207 59.865 10.6183H61.1481C61.2036 10.6207 61.256 10.6445 61.2944 10.6847C61.3328 10.7248 61.3543 10.7782 61.3543 10.8338C61.3543 10.8894 61.3328 10.9428 61.2944 10.9829C61.256 11.0231 61.2036 11.0469 61.1481 11.0494H61.1468ZM58.5696 11.0494H57.2873C57.2582 11.0506 57.2291 11.046 57.2018 11.0358C57.1746 11.0255 57.1496 11.0099 57.1286 10.9897C57.1075 10.9696 57.0908 10.9454 57.0793 10.9186C57.0679 10.8918 57.062 10.8629 57.062 10.8338C57.062 10.8047 57.0679 10.7758 57.0793 10.749C57.0908 10.7222 57.1075 10.698 57.1286 10.6779C57.1496 10.6577 57.1746 10.6421 57.2018 10.6318C57.2291 10.6216 57.2582 10.617 57.2873 10.6183H58.5708C58.6263 10.6207 58.6788 10.6445 58.7172 10.6847C58.7556 10.7248 58.777 10.7782 58.777 10.8338C58.777 10.8894 58.7556 10.9428 58.7172 10.9829C58.6788 11.0231 58.6263 11.0469 58.5708 11.0494H58.5696ZM56.0029 11.0494H54.7211C54.692 11.0506 54.6629 11.046 54.6356 11.0358C54.6083 11.0255 54.5834 11.0099 54.5624 10.9897C54.5413 10.9696 54.5246 10.9454 54.5131 10.9186C54.5017 10.8918 54.4958 10.8629 54.4958 10.8338C54.4958 10.8047 54.5017 10.7758 54.5131 10.749C54.5246 10.7222 54.5413 10.698 54.5624 10.6779C54.5834 10.6577 54.6083 10.6421 54.6356 10.6318C54.6629 10.6216 54.692 10.617 54.7211 10.6183H56.0042C56.0602 10.6219 56.113 10.6457 56.1528 10.6855C56.1925 10.7252 56.2164 10.778 56.22 10.834C56.2198 10.8912 56.1971 10.9459 56.1566 10.9863C56.1162 11.0267 56.0613 11.0494 56.0042 11.0494H56.0029ZM53.4257 11.0494H52.1328C52.1037 11.0506 52.0746 11.046 52.0473 11.0358C52.02 11.0255 51.9951 11.0099 51.9741 10.9897C51.953 10.9696 51.9363 10.9454 51.9248 10.9186C51.9134 10.8918 51.9075 10.8629 51.9075 10.8338C51.9075 10.8047 51.9134 10.7758 51.9248 10.749C51.9363 10.7222 51.953 10.698 51.9741 10.6779C51.9951 10.6577 52.02 10.6421 52.0473 10.6318C52.0746 10.6216 52.1037 10.617 52.1328 10.6183H53.4269C53.456 10.617 53.4851 10.6216 53.5124 10.6318C53.5397 10.6421 53.5646 10.6577 53.5857 10.6779C53.6067 10.698 53.6235 10.7222 53.6349 10.749C53.6464 10.7758 53.6523 10.8047 53.6523 10.8338C53.6523 10.8629 53.6464 10.8918 53.6349 10.9186C53.6235 10.9454 53.6067 10.9696 53.5857 10.9897C53.5646 11.0099 53.5397 11.0255 53.5124 11.0358C53.4851 11.046 53.456 11.0506 53.4269 11.0494H53.4257ZM50.848 11.0494H49.5662C49.537 11.0506 49.508 11.046 49.4807 11.0358C49.4534 11.0255 49.4285 11.0099 49.4074 10.9897C49.3864 10.9696 49.3696 10.9454 49.3582 10.9186C49.3467 10.8918 49.3408 10.8629 49.3408 10.8338C49.3408 10.8047 49.3467 10.7758 49.3582 10.749C49.3696 10.7222 49.3864 10.698 49.4074 10.6779C49.4285 10.6577 49.4534 10.6421 49.4807 10.6318C49.508 10.6216 49.537 10.617 49.5662 10.6183H50.8493C50.9048 10.6207 50.9572 10.6445 50.9956 10.6847C51.034 10.7248 51.0554 10.7782 51.0554 10.8338C51.0554 10.8894 51.034 10.9428 50.9956 10.9829C50.9572 11.0231 50.9048 11.0469 50.8493 11.0494H50.848Z" fill="#EAEAFF"/>
<path d="M94.0823 15.7082V15.8917H42.8578V15.7082H94.0823Z" fill="white"/>
<path d="M47.7655 38.9804C47.4741 38.9793 47.195 38.863 46.9889 38.657C46.7828 38.4509 46.6666 38.1717 46.6655 37.8803V21.7152C46.6666 21.4238 46.7828 21.1446 46.9889 20.9385C47.195 20.7325 47.4741 20.6162 47.7655 20.6151H48.3478C48.6392 20.6162 48.9184 20.7325 49.1244 20.9385C49.3305 21.1446 49.4467 21.4238 49.4479 21.7152V37.8697C49.4489 38.1628 49.3336 38.4442 49.1274 38.6525C48.9212 38.8607 48.6409 38.9786 48.3478 38.9804H47.7655Z" fill="#EAEAFF"/>
<path d="M52.8679 38.9804C52.628 38.9789 52.3984 38.883 52.2289 38.7134C52.0593 38.5439 51.9634 38.3143 51.9619 38.0744V27.517C51.9634 27.2771 52.0593 27.0475 52.2289 26.878C52.3984 26.7084 52.628 26.6125 52.8679 26.611H53.8384C54.0782 26.6125 54.3078 26.7084 54.4774 26.878C54.647 27.0475 54.7429 27.2771 54.7443 27.517V38.0744C54.7411 38.3137 54.6447 38.5423 54.4754 38.7115C54.3062 38.8807 54.0776 38.9772 53.8384 38.9804H52.8679Z" fill="#EAEAFF"/>
<path d="M58.3444 38.9804C58.053 38.9793 57.7738 38.863 57.5678 38.657C57.3617 38.4509 57.2454 38.1717 57.2443 37.8803V21.7152C57.2454 21.4238 57.3617 21.1446 57.5678 20.9385C57.7738 20.7325 58.053 20.6162 58.3444 20.6151H58.9267C59.2181 20.6162 59.4972 20.7325 59.7033 20.9385C59.9093 21.1446 60.0256 21.4238 60.0267 21.7152V37.8697C60.0277 38.1628 59.9125 38.4442 59.7063 38.6525C59.5001 38.8607 59.2197 38.9786 58.9267 38.9804H58.3444Z" fill="#EAEAFF"/>
<path d="M63.8548 38.9817C63.603 38.9812 63.3616 38.8809 63.1838 38.7027C63.0059 38.5245 62.9059 38.283 62.9059 38.0312V26.2118C62.9064 25.9603 63.0065 25.7192 63.1844 25.5414C63.3622 25.3635 63.6033 25.2634 63.8548 25.263H64.7285C64.98 25.2634 65.221 25.3635 65.3989 25.5414C65.5767 25.7192 65.6769 25.9603 65.6773 26.2118V38.0312C65.6783 38.1561 65.6544 38.28 65.6071 38.3956C65.5597 38.5113 65.4899 38.6164 65.4016 38.7048C65.3134 38.7933 65.2084 38.8633 65.0928 38.9108C64.9773 38.9583 64.8534 38.9824 64.7285 38.9817H63.8548Z" fill="#EAEAFF"/>
<path d="M68.9776 38.9804C68.7691 38.9793 68.5696 38.896 68.4221 38.7487C68.2747 38.6013 68.1914 38.4018 68.1901 38.1933V30.5151C68.1912 30.3066 68.2746 30.107 68.422 29.9595C68.5694 29.8121 68.7691 29.7288 68.9776 29.7277H70.1961C70.4045 29.7289 70.6041 29.8123 70.7514 29.9597C70.8988 30.1071 70.982 30.3067 70.9831 30.5151V38.1933C70.9802 38.4013 70.8963 38.5998 70.7492 38.7469C70.6022 38.8939 70.4036 38.9778 70.1957 38.9808L68.9776 38.9804Z" fill="#EAEAFF"/>
<path d="M74.4336 38.9816C74.1818 38.9812 73.9405 38.8808 73.7626 38.7026C73.5847 38.5244 73.4848 38.2829 73.4848 38.0311V26.2117C73.4853 25.9602 73.5854 25.7192 73.7632 25.5413C73.9411 25.3635 74.1821 25.2634 74.4336 25.2629H75.3073C75.5588 25.2634 75.7999 25.3635 75.9778 25.5413C76.1556 25.7192 76.2557 25.9602 76.2562 26.2117V38.0311C76.2571 38.1561 76.2332 38.2799 76.1859 38.3956C76.1386 38.5112 76.0688 38.6163 75.9805 38.7048C75.8922 38.7932 75.7872 38.8632 75.6717 38.9108C75.5561 38.9583 75.4323 38.9824 75.3073 38.9816H74.4336Z" fill="#EAEAFF"/>
<path d="M47.5167 10.6182C46.2947 10.6077 45.1183 11.0818 44.2451 11.9367C43.3719 12.7917 42.8731 13.9578 42.8578 15.1798V15.7944H94.0823V15.1798C94.067 13.9579 93.5683 12.7918 92.6952 11.9369C91.8221 11.0819 90.6458 10.6078 89.4239 10.6182H47.5167Z" fill="#EAEAFF"/>
<path d="M82.8021 13.8861C82.6191 13.8889 82.4425 13.8188 82.3111 13.6914C82.1797 13.564 82.1042 13.3896 82.1013 13.2066C82.1042 13.0236 82.1797 12.8492 82.3111 12.7218C82.4425 12.5943 82.6191 12.5243 82.8021 12.527C82.9851 12.5243 83.1618 12.5943 83.2932 12.7218C83.4246 12.8492 83.5 13.0236 83.5029 13.2066C83.5 13.3896 83.4246 13.564 83.2932 13.6914C83.1618 13.8188 82.9851 13.8889 82.8021 13.8861Z" fill="#FF8870"/>
<path d="M85.9614 13.8861C85.7784 13.8889 85.6018 13.8188 85.4704 13.6914C85.339 13.564 85.2635 13.3896 85.2606 13.2066C85.2635 13.0235 85.339 12.8492 85.4704 12.7217C85.6018 12.5943 85.7784 12.5243 85.9614 12.527C86.1444 12.5243 86.3211 12.5943 86.4525 12.7217C86.5839 12.8492 86.6593 13.0235 86.6622 13.2066C86.6593 13.3896 86.5839 13.564 86.4525 13.6914C86.3211 13.8188 86.1444 13.8889 85.9614 13.8861Z" fill="#FFD301"/>
<path d="M89.1225 13.8861C88.9395 13.8889 88.7629 13.8188 88.6314 13.6914C88.5 13.564 88.4246 13.3896 88.4217 13.2066C88.4246 13.0235 88.5 12.8492 88.6314 12.7217C88.7629 12.5943 88.9395 12.5243 89.1225 12.527C89.3055 12.5243 89.4821 12.5943 89.6135 12.7217C89.7449 12.8492 89.8204 13.0235 89.8233 13.2066C89.8204 13.3896 89.7449 13.564 89.6135 13.6914C89.4821 13.8188 89.3055 13.8889 89.1225 13.8861Z" fill="#54CDA2"/>
<path d="M92.2939 50.4115C91.5678 50.4105 90.8717 50.1216 90.3582 49.6081C89.8448 49.0947 89.5559 48.3986 89.5549 47.6724V31.2588C89.5559 30.5326 89.8448 29.8365 90.3582 29.3231C90.8717 28.8096 91.5678 28.5207 92.2939 28.5197H114.1C114.826 28.5207 115.522 28.8096 116.035 29.3231C116.549 29.8365 116.838 30.5326 116.839 31.2588V47.6724C116.838 48.3986 116.549 49.0947 116.035 49.6081C115.522 50.1216 114.826 50.4105 114.1 50.4115H92.2939Z" fill="#EAEAFF"/>
<path d="M116.839 34.0306V34.2247H89.5549V34.0306H116.839Z" fill="white"/>
<path d="M106.214 32.1864C106.055 32.1864 105.899 32.1391 105.766 32.0504C105.633 31.9617 105.53 31.8357 105.469 31.6882C105.408 31.5408 105.392 31.3785 105.423 31.222C105.454 31.0654 105.531 30.9216 105.644 30.8088C105.757 30.6959 105.9 30.6191 106.057 30.5879C106.213 30.5568 106.376 30.5728 106.523 30.6338C106.671 30.6949 106.797 30.7984 106.885 30.9311C106.974 31.0638 107.021 31.2198 107.021 31.3794C107.021 31.5934 106.936 31.7987 106.785 31.95C106.634 32.1014 106.428 32.1864 106.214 32.1864Z" fill="#FF8870"/>
<path d="M109.88 32.1864C109.721 32.1864 109.565 32.1391 109.432 32.0504C109.299 31.9617 109.196 31.8357 109.135 31.6882C109.074 31.5408 109.058 31.3785 109.089 31.222C109.12 31.0654 109.197 30.9216 109.31 30.8088C109.423 30.6959 109.566 30.6191 109.723 30.5879C109.88 30.5568 110.042 30.5728 110.189 30.6338C110.337 30.6949 110.463 30.7984 110.551 30.9311C110.64 31.0638 110.687 31.2198 110.687 31.3794C110.687 31.5934 110.602 31.7987 110.451 31.95C110.3 32.1014 110.094 32.1864 109.88 32.1864Z" fill="#FFD301"/>
<path d="M113.548 32.1864C113.389 32.1864 113.233 32.1391 113.1 32.0504C112.967 31.9617 112.864 31.8357 112.803 31.6882C112.742 31.5408 112.726 31.3785 112.757 31.222C112.788 31.0654 112.865 30.9216 112.978 30.8088C113.091 30.6959 113.234 30.6191 113.391 30.5879C113.547 30.5568 113.71 30.5728 113.857 30.6338C114.005 30.6949 114.131 30.7984 114.219 30.9311C114.308 31.0638 114.355 31.2198 114.355 31.3794C114.355 31.5934 114.27 31.7987 114.119 31.95C113.968 32.1014 113.762 32.1864 113.548 32.1864Z" fill="#54CDA2"/>
<path d="M104.771 41.7844C104.707 41.7841 104.645 41.7666 104.59 41.7339C104.535 41.7012 104.489 41.6543 104.459 41.5982C104.428 41.5421 104.413 41.4788 104.415 41.4148C104.416 41.3508 104.435 41.2885 104.469 41.2344L106.68 37.7728C106.693 37.7532 106.703 37.7311 106.707 37.7077C106.712 37.6844 106.711 37.6604 106.706 37.6371C106.701 37.6139 106.692 37.5919 106.678 37.5726C106.664 37.5533 106.646 37.537 106.626 37.5248C105.916 37.109 105.115 36.8761 104.293 36.8471C103.472 36.8181 102.656 36.9938 101.919 37.3586C101.182 37.7233 100.547 38.2655 100.072 38.9364C99.5966 39.6073 99.2956 40.3859 99.196 41.2021C99.1181 41.8654 99.1749 42.5376 99.363 43.1785C99.5511 43.8194 99.8666 44.4157 100.291 44.9318C100.715 45.4478 101.238 45.873 101.831 46.1818C102.423 46.4907 103.071 46.6768 103.737 46.7291C104.403 46.7813 105.072 46.6987 105.706 46.4861C106.339 46.2734 106.922 45.9352 107.422 45.4917C107.921 45.0481 108.326 44.5083 108.612 43.9047C108.897 43.301 109.058 42.6458 109.085 41.9785C109.083 41.9275 109.062 41.8791 109.026 41.843C108.99 41.8069 108.942 41.786 108.891 41.7844H104.771Z" fill="white"/>
<path d="M42.526 74.6006C46.6454 67.3751 51.1212 62.684 53.8709 60.6134C55.6388 59.3085 57.5108 58.1508 59.468 57.1519L57.0849 78.2673L50.4417 99.2748L37.0262 99.361C37.0262 99.361 38.4066 81.8261 42.526 74.6006Z" fill="#F9D2DD"/>
<path d="M55.4785 83.3356L57.0844 78.2673L58.6164 64.7546L56.7726 58.6724C56.7316 58.6952 56.692 58.7204 56.6541 58.748C56.6758 60.5383 56.4706 66.5235 53.2032 71.6241C50.3342 76.0995 44.3493 76.9086 41.4051 77.016C41.3201 77.2101 41.2326 77.4149 41.157 77.6107L55.4785 83.3356Z" fill="#F9ACC0"/>
<path d="M51.4769 80.2189C51.4769 80.2189 54.7983 78.2652 56.6319 69.6721C57.6886 64.7112 56.6319 58.5535 56.6319 58.5535C56.6319 58.5535 63.6195 54.4235 70.845 54.7683C75.1136 54.9582 79.3449 55.6499 83.4518 56.8291C83.4518 56.8291 82.988 60.3773 82.988 67.7213C82.988 75.0653 86.2015 82.9691 86.2015 82.9691L85.6837 99.361H49.1689L51.4769 80.2189Z" fill="#3D5CFF"/>
<path d="M67.6855 75.7542L66.1433 91.2296L85.8138 86.0207L74.8558 84.349L67.6855 75.7542Z" fill="#224BF4"/>
<path d="M59.6086 57.1735V98.4444H59.3822V57.1735H59.6086Z" fill="white"/>
<path d="M64.5905 55.4478V98.444H64.3641V55.4478H64.5905Z" fill="white"/>
<path d="M69.5846 57.1735V98.4444H69.3582V57.1735H69.5846Z" fill="white"/>
<path d="M74.5665 57.1736V98.4445H74.3401V57.1736H74.5665Z" fill="white"/>
<path d="M79.5483 55.9116V98.4444H79.322V55.9116H79.5483Z" fill="white"/>
<path d="M83.0204 13.2171C82.7141 13.4885 82.4762 13.8285 82.3263 14.2093C82.1764 14.5901 82.1187 15.0009 82.1578 15.4083C81.4178 15.1511 80.6257 15.0814 79.8522 15.2052C79.0787 15.3291 78.348 15.6427 77.7253 16.118C76.0863 17.3582 76.2812 19.2776 76.4851 20.1835C74.3067 20.0111 72.0097 20.8206 71.1361 22.5561C70.6174 23.6948 70.3772 24.9405 70.4353 26.1905C64.8492 25.7806 60.1568 29.3071 59.4569 34.3877C58.7569 39.4683 61.355 42.3786 61.355 42.3786L71.9341 45.4952C71.9341 45.4952 76.528 45.8078 78.9222 43.6294C81.3164 41.451 82.8153 36.361 81.0144 32.2089C80.4521 31.024 79.6258 29.9837 78.599 29.1678C79.2637 28.503 79.8732 27.7853 80.4215 27.0217C80.8029 26.4548 81.0472 25.8071 81.1351 25.1296C81.223 24.4521 81.1522 23.7634 80.9282 23.118C81.6988 23.0003 82.441 22.7411 83.1172 22.3535C84.67 21.5125 85.071 19.7545 84.6917 18.2336C85.2017 18.2482 85.7118 18.2055 86.2122 18.1062C87.7111 17.7825 88.3151 15.9171 87.3123 14.0513C86.3095 12.1854 84.2173 12.2789 83.0204 13.2171Z" fill="#1F1F39"/>
<path d="M60.2978 39.6492C58.4646 40.4473 58.5831 44.0061 61.2143 45.1491C63.8455 46.292 65.3448 45.3754 65.3448 45.3754L63.2743 39.6492C63.2743 39.6492 62.1309 38.8512 60.2978 39.6492Z" fill="#F9ACC0"/>
<path d="M63.414 44.9656L62.5297 43.1324C61.6781 41.3639 60.5241 40.7812 60.5131 40.7812C60.4875 40.7695 60.4675 40.7483 60.4574 40.7221C60.4473 40.6959 60.4479 40.6668 60.4591 40.641C60.4707 40.6153 60.492 40.5952 60.5183 40.5851C60.5447 40.575 60.5739 40.5757 60.5997 40.587C60.6537 40.6087 61.8399 41.191 62.7234 43.0458L63.6077 44.8789C63.6189 44.9047 63.6195 44.9338 63.6094 44.9601C63.5993 44.9863 63.5793 45.0075 63.5537 45.0191C63.5431 45.0191 63.5214 45.0297 63.5112 45.0297C63.4905 45.03 63.4701 45.024 63.4527 45.0126C63.4354 45.0012 63.4219 44.9848 63.414 44.9656Z" fill="#1F1F39"/>
<path d="M61.5691 38.6783C61.623 39.8106 61.8927 43.8978 63.1652 46.0545C63.9607 47.4424 65.1768 48.5414 66.6378 49.1929C66.6953 49.2157 66.7441 49.2562 66.7771 49.3086C66.8101 49.361 66.8255 49.4225 66.8213 49.4842C66.789 50.2912 66.6594 53.1399 66.3685 54.3049C66.1098 55.351 65.8508 56.192 65.7314 56.5373C65.7141 56.5913 65.712 56.649 65.7254 56.7042C65.7387 56.7593 65.7669 56.8097 65.807 56.8499C66.2708 57.3137 68.05 58.198 70.9509 58.198C73.8195 58.198 75.3723 57.4861 75.9223 57.1625C75.9767 57.1295 76.0201 57.0812 76.0469 57.0236C76.0738 56.966 76.0829 56.9016 76.0731 56.8388C75.9113 55.9979 75.3086 52.7839 75.3086 51.1989C75.3086 49.6889 75.4594 47.5645 75.5133 46.853C75.5183 46.7856 75.5452 46.7216 75.59 46.671C75.6348 46.6204 75.695 46.5858 75.7614 46.5727C76.6996 46.4003 80.2045 45.5483 79.9997 42.3679C79.8056 39.1756 76.9154 39.4564 76.1712 39.5855C76.1169 39.5951 76.0662 39.6193 76.0244 39.6553C75.9827 39.6913 75.9514 39.7379 75.9338 39.7902C75.8064 40.1568 75.4811 41.0844 75.3082 41.8068C75.2925 41.8764 75.2526 41.9382 75.1957 41.9813C75.1388 42.0243 75.0685 42.0458 74.9972 42.0419C74.926 42.038 74.8584 42.0091 74.8065 41.9601C74.7546 41.9112 74.7216 41.8454 74.7136 41.7745C74.6597 41.4067 74.6313 41.0356 74.6286 40.6639C74.6175 40.3006 74.6574 39.9376 74.7471 39.5855C74.7569 39.5465 74.7587 39.506 74.7526 39.4664C74.7464 39.4267 74.7324 39.3886 74.7113 39.3545C74.6902 39.3203 74.6624 39.2907 74.6297 39.2674C74.597 39.2442 74.5599 39.2277 74.5207 39.219C73.701 39.0249 71.5982 38.3563 70.5092 36.5338C70.0379 35.7785 69.6476 34.9756 69.345 34.1383C69.3258 34.081 69.2899 34.0308 69.2419 33.9941C69.1939 33.9574 69.1359 33.9359 69.0756 33.9324C69.0153 33.9289 68.9553 33.9436 68.9033 33.9746C68.8514 34.0055 68.81 34.0513 68.7844 34.1061C68.1629 35.3481 67.1618 36.3598 65.9264 36.9942C64.6628 37.7053 63.2759 38.1706 61.8392 38.3657C61.7624 38.3726 61.6914 38.4091 61.641 38.4674C61.5906 38.5257 61.5648 38.6013 61.5691 38.6783Z" fill="#F9D2DD"/>
<path d="M93.2109 66.577C95.8443 72.4221 97.0067 84.7376 96.7591 89.159C96.5217 93.2895 95.0339 97.9806 90.1053 99.0157C85.1878 100.051 67.4155 99.0144 67.4155 99.0144V87.2176L84.724 86.0746L83.3543 78.17C83.3543 78.17 81.6396 70.3728 82.2113 64.4203C82.772 58.4456 83.2358 56.8388 83.2358 56.8388C83.2358 56.8388 89.5659 58.4889 93.2109 66.577Z" fill="#F9D2DD"/>
<path d="M70.0155 38.4953C70.2162 38.3972 70.44 38.3563 70.6624 38.3768C70.7731 38.3865 70.882 38.412 70.9856 38.4524C71.0933 38.4846 71.1927 38.5398 71.277 38.6142C71.3648 38.6799 71.4348 38.7667 71.4803 38.8665C71.5259 38.9663 71.5456 39.076 71.5377 39.1854C71.5121 39.0924 71.4682 39.0054 71.4086 38.9295C71.3491 38.8536 71.275 38.7903 71.1907 38.7433C71.0223 38.6593 70.8394 38.6081 70.6518 38.5925C70.4624 38.576 70.2717 38.5979 70.0911 38.6571C69.903 38.7217 69.7304 38.8245 69.584 38.9591C69.6702 38.7594 69.8226 38.5956 70.0155 38.4953Z" fill="#1F1F39"/>
<path d="M63.857 38.5492C64.0243 38.399 64.2364 38.3081 64.4606 38.2906C64.573 38.2799 64.6865 38.2908 64.7948 38.3228C64.9044 38.3631 65.0065 38.4214 65.0968 38.4953C65.1759 38.5701 65.2388 38.6604 65.2815 38.7606C65.3242 38.8608 65.3457 38.9687 65.3448 39.0776C65.2693 38.8977 65.1465 38.7417 64.9894 38.6261C64.9143 38.5744 64.8301 38.5373 64.7413 38.5169C64.6988 38.5169 64.6564 38.4953 64.6139 38.4953H64.4865C64.2991 38.508 64.1186 38.5714 63.9645 38.6788C63.7919 38.7849 63.6388 38.9198 63.5117 39.0776C63.5758 38.8729 63.6953 38.6901 63.857 38.5492Z" fill="#1F1F39"/>
<path d="M67.1994 40.4146C67.1454 40.5654 67.0915 40.706 67.0486 40.8567C67.0057 41.0075 66.9636 41.1481 66.9301 41.2989C66.8934 41.4358 66.8825 41.5784 66.8978 41.7194C66.907 41.7826 66.9331 41.8422 66.9734 41.8918C66.9889 41.9216 67.011 41.9475 67.038 41.9674L67.0702 41.9997L67.1127 42.032C67.2307 42.1193 67.3671 42.1783 67.5115 42.2044C67.6644 42.2372 67.8194 42.2588 67.9753 42.269C67.8208 42.3102 67.6603 42.3246 67.5009 42.3114C67.3342 42.3015 67.1719 42.2536 67.0265 42.1713C66.9485 42.1262 66.8805 42.0657 66.8268 41.9933C66.773 41.921 66.7346 41.8385 66.7139 41.7508C66.6884 41.5824 66.6958 41.4106 66.7356 41.2449C66.8043 40.9298 66.913 40.6248 67.0592 40.3373C67.1868 40.0537 67.3422 39.7834 67.523 39.5303L67.1994 40.4146Z" fill="#1F1F39"/>
<path d="M64.6561 41.8489C64.4278 41.8304 64.2161 41.7228 64.0667 41.5492C63.9173 41.3756 63.8423 41.1502 63.858 40.9217C63.8422 40.6932 63.9171 40.4676 64.0665 40.294C64.2159 40.1203 64.4278 40.0126 64.6561 39.9941C64.8844 40.0126 65.0963 40.1203 65.2457 40.294C65.3951 40.4676 65.47 40.6932 65.4542 40.9217C65.4699 41.1502 65.3949 41.3756 65.2455 41.5492C65.0961 41.7228 64.8844 41.8304 64.6561 41.8489Z" fill="#1F1F39"/>
<path d="M70.3807 41.8489C70.1524 41.8304 69.9406 41.7228 69.7912 41.5492C69.6418 41.3756 69.5669 41.1502 69.5826 40.9217C69.5668 40.6932 69.6417 40.4676 69.7911 40.294C69.9405 40.1203 70.1523 40.0126 70.3807 39.9941C70.609 40.0126 70.8208 40.1203 70.9702 40.294C71.1196 40.4676 71.1946 40.6932 71.1787 40.9217C71.1944 41.1502 71.1195 41.3756 70.9701 41.5492C70.8207 41.7228 70.6089 41.8304 70.3807 41.8489Z" fill="#1F1F39"/>
<path d="M71.611 86.8833V99.0157C71.611 99.0157 75.4501 99.2421 80.0551 99.3717L75.914 86.603L71.611 86.8833Z" fill="#F9ACC0"/>
<path d="M69.0124 45.2782C68.7842 45.2597 68.5724 45.1521 68.423 44.9785C68.2736 44.8049 68.1986 44.5795 68.2144 44.351C68.1985 44.1225 68.2734 43.8969 68.4228 43.7233C68.5722 43.5496 68.7841 43.4419 69.0124 43.4234C69.2408 43.4419 69.4526 43.5496 69.602 43.7233C69.7514 43.8969 69.8263 44.1225 69.8105 44.351C69.8262 44.5795 69.7513 44.8049 69.6019 44.9785C69.4525 45.1521 69.2407 45.2597 69.0124 45.2782Z" fill="#F95368"/>
<path d="M36.7995 99.2528C36.3405 99.2205 35.9 99.0584 35.5296 98.7854C35.1591 98.5123 34.8739 98.1395 34.7073 97.7106L30.3398 73.7593C30.0268 72.9179 30.4689 72.2171 31.321 72.2171H69.8634C70.3225 72.2493 70.7629 72.4114 71.1334 72.6845C71.5038 72.9575 71.789 73.3303 71.9556 73.7593L76.3223 97.7106C76.6349 98.5626 76.1948 99.2528 75.3407 99.2528H36.7995Z" fill="#EAEAFF"/>
<path d="M52.8444 87.4941C52.3404 87.4941 51.8477 87.3446 51.4286 87.0646C51.0095 86.7846 50.6829 86.3866 50.49 85.9209C50.2971 85.4553 50.2467 84.9429 50.345 84.4486C50.4433 83.9542 50.686 83.5001 51.0424 83.1437C51.3988 82.7873 51.8529 82.5446 52.3472 82.4463C52.8416 82.348 53.354 82.3984 53.8196 82.5913C54.2853 82.7842 54.6833 83.1108 54.9633 83.5299C55.2433 83.949 55.3928 84.4417 55.3928 84.9457C55.3928 85.6216 55.1243 86.2698 54.6464 86.7477C54.1685 87.2256 53.5203 87.4941 52.8444 87.4941Z" fill="white"/>
<g opacity="0.635">
<path opacity="0.635" d="M72.379 45.1814C71.0568 45.1814 69.9848 44.5247 69.9848 43.7148C69.9848 42.9048 71.0568 42.2482 72.379 42.2482C73.7012 42.2482 74.7732 42.9048 74.7732 43.7148C74.7732 44.5247 73.7012 45.1814 72.379 45.1814Z" fill="#F9ACC0"/>
<path opacity="0.635" d="M63.8918 45.1817C62.5696 45.1817 61.4976 44.5251 61.4976 43.7151C61.4976 42.9052 62.5696 42.2485 63.8918 42.2485C65.214 42.2485 66.286 42.9052 66.286 43.7151C66.286 44.5251 65.214 45.1817 63.8918 45.1817Z" fill="#F9ACC0"/>
</g>
<path d="M69.5608 49.754C68.6214 49.6705 67.6885 49.5264 66.7677 49.3225C66.8018 49.3777 66.8204 49.4411 66.8217 49.5059C66.8 50.1851 66.7028 52.2773 66.498 53.6254C67.5335 53.4096 69.4745 52.8902 70.6069 51.9214C71.4692 51.214 72.2407 50.4027 72.9038 49.5059C71.8043 49.7284 70.6811 49.8117 69.5608 49.754Z" fill="#F9ACC0"/>
<path d="M66.7893 49.3764C66.7758 49.3716 66.7636 49.364 66.7534 49.354C66.7432 49.3441 66.7352 49.332 66.7301 49.3187C66.725 49.3054 66.7228 49.2911 66.7237 49.2769C66.7246 49.2627 66.7286 49.2488 66.7353 49.2362C66.7401 49.2228 66.7478 49.2105 66.7577 49.2003C66.7677 49.1901 66.7797 49.1822 66.793 49.1771C66.8063 49.1719 66.8206 49.1697 66.8348 49.1707C66.8491 49.1716 66.8629 49.1755 66.8755 49.1823C67.9254 49.5578 69.0415 49.7125 70.154 49.6367C71.1915 49.592 72.2216 49.4397 73.2278 49.1823C73.2411 49.1774 73.2553 49.1755 73.2694 49.1768C73.2836 49.1782 73.2972 49.1826 73.3094 49.1898C73.3216 49.1971 73.3321 49.2069 73.34 49.2187C73.3479 49.2305 73.3531 49.2439 73.3552 49.2579C73.3601 49.2712 73.3619 49.2854 73.3606 49.2996C73.3593 49.3137 73.3549 49.3274 73.3476 49.3396C73.3404 49.3518 73.3305 49.3622 73.3188 49.3701C73.307 49.378 73.2936 49.3832 73.2796 49.3853C72.2588 49.6439 71.2147 49.7993 70.1629 49.8491C69.9794 49.8491 69.807 49.8597 69.6345 49.8597C68.6647 49.8721 67.7006 49.7083 66.7893 49.3764Z" fill="#1F1F39"/>
<path d="M75.5783 44.5562C75.2826 45.3243 75.2635 46.1714 75.5244 46.9521V46.8875C75.5294 46.8201 75.5563 46.7561 75.6011 46.7055C75.6459 46.6549 75.7061 46.6203 75.7725 46.6072C76.1119 46.5423 76.4468 46.4559 76.7752 46.3485C76.5491 45.5093 76.4833 44.6349 76.5811 43.7713C76.6956 43.0009 76.9324 42.2538 77.2824 41.558C77.2824 41.558 76.2902 42.3455 75.5783 44.5562Z" fill="#F9ACC0"/>
<path d="M75.319 45.494C75.3745 44.6338 75.6135 43.7954 76.0198 43.0352C76.4073 42.2154 77.0209 41.5232 77.7884 41.0403C77.801 41.033 77.815 41.0282 77.8295 41.0264C77.844 41.0246 77.8587 41.0257 77.8728 41.0296C77.8868 41.0336 77.9 41.0403 77.9114 41.0495C77.9228 41.0586 77.9322 41.0699 77.9392 41.0828C77.9465 41.0954 77.9512 41.1094 77.9531 41.1239C77.9549 41.1384 77.9538 41.1531 77.9498 41.1671C77.9459 41.1812 77.9391 41.1943 77.93 41.2057C77.9209 41.2171 77.9096 41.2266 77.8967 41.2335C77.1756 41.7009 76.5972 42.358 76.225 43.1325C75.8359 43.8637 75.6044 44.6683 75.5454 45.4944C75.5395 45.5225 75.5248 45.5481 75.5036 45.5675C75.4823 45.5868 75.4555 45.599 75.4269 45.6023C75.4127 45.6023 75.3986 45.5995 75.3855 45.594C75.3724 45.5886 75.3605 45.5806 75.3505 45.5705C75.3405 45.5605 75.3325 45.5485 75.3271 45.5354C75.3217 45.5223 75.319 45.5082 75.319 45.494Z" fill="#1F1F39"/>
<path d="M86.4387 58.4027C85.4488 57.7287 84.3664 57.2019 83.2252 56.8388C83.2252 56.8388 82.7614 58.4456 82.1897 64.399C81.8121 68.2917 82.4161 72.9718 82.8782 75.7435C82.8918 72.6693 83.1993 69.6034 83.7964 66.5877C84.6807 62.2095 85.7379 59.7075 86.4387 58.4027Z" fill="#F9ACC0"/>
<path d="M89.7605 85.6113L84.1417 82.6348L84.7024 85.9778L89.7605 85.6113Z" fill="#F9ACC0"/>
<path d="M84.6149 86.0318C84.6043 85.9778 84.6574 85.9239 84.7122 85.9133L89.825 85.4265C89.8536 85.4238 89.8821 85.4325 89.9043 85.4507C89.9265 85.4689 89.9406 85.4952 89.9435 85.5238C89.9542 85.5777 89.9011 85.6317 89.8463 85.6423L84.724 86.129C84.6974 86.1281 84.6719 86.1178 84.652 86.1001C84.632 86.0823 84.6189 86.0582 84.6149 86.0318Z" fill="#1F1F39"/>
<path d="M25.7609 99.68C25.7048 99.68 25.6602 99.5858 25.6602 99.4677C25.6602 99.3496 25.7048 99.2553 25.7609 99.2553H106.258C106.314 99.2553 106.359 99.3496 106.359 99.4677C106.359 99.5858 106.314 99.68 106.258 99.68H25.7609Z" fill="#1F1F39"/>
</svg>
