<svg width="48" height="48" viewBox="0 0 48 48" fill="none" xmlns="http://www.w3.org/2000/svg">
<path d="M22.991 29.7636L39.4733 19.1678L22.991 8.57207V29.7636ZM14.7499 38.0047C13.4548 38.0047 12.3458 37.5432 11.4228 36.6202C10.4998 35.6972 10.0391 34.5889 10.0406 33.2955V5.04016C10.0406 3.74512 10.5021 2.6361 11.4251 1.71309C12.3482 0.790085 13.4564 0.329367 14.7499 0.330937H43.0052C44.3002 0.330937 45.4092 0.79244 46.3322 1.71545C47.2552 2.63845 47.716 3.74669 47.7144 5.04016V33.2955C47.7144 34.5905 47.2529 35.6995 46.3299 36.6225C45.4069 37.5455 44.2986 38.0063 43.0052 38.0047H14.7499ZM14.7499 33.2955H43.0052V5.04016H14.7499V33.2955ZM5.33142 47.4231C4.03638 47.4231 2.92736 46.9616 2.00435 46.0386C1.08134 45.1156 0.620627 44.0074 0.622196 42.7139V9.74938H5.33142V42.7139H38.296V47.4231H5.33142Z" fill="#911DED"/>
</svg>
