<svg width="13" height="12" viewBox="0 0 13 12" fill="none" xmlns="http://www.w3.org/2000/svg">
<path d="M8.19255 8.29107V10.488H4.89714V8.29107M2.81004 8.29107H10.2796C10.8948 8.29107 11.2025 8.29107 11.4374 8.17135C11.6441 8.06603 11.8122 7.89799 11.9175 7.6913C12.0372 7.45632 12.0372 7.14872 12.0372 6.53352V2.35933C12.0372 1.74413 12.0372 1.43653 11.9175 1.20155C11.8122 0.994861 11.6441 0.826816 11.4374 0.721502C11.2025 0.601776 10.8948 0.601776 10.2796 0.601776H2.81004C2.19484 0.601776 1.88724 0.601776 1.65227 0.721502C1.44558 0.826816 1.27753 0.994861 1.17222 1.20155C1.05249 1.43653 1.05249 1.74413 1.05249 2.35933V6.53352C1.05249 7.14872 1.05249 7.45632 1.17222 7.6913C1.27753 7.89799 1.44558 8.06603 1.65227 8.17135C1.88724 8.29107 2.19484 8.29107 2.81004 8.29107Z" stroke="#175CD3" stroke-width="1.09847" stroke-linecap="round" stroke-linejoin="round"/>
</svg>
