<svg width="4" height="11" viewBox="0 0 4 11" fill="none" xmlns="http://www.w3.org/2000/svg">
<path d="M1.95133 6.14005C2.25467 6.14005 2.50057 5.89415 2.50057 5.59081C2.50057 5.28748 2.25467 5.04158 1.95133 5.04158C1.648 5.04158 1.4021 5.28748 1.4021 5.59081C1.4021 5.89415 1.648 6.14005 1.95133 6.14005Z" stroke="#98A2B3" stroke-width="1.09847" stroke-linecap="round" stroke-linejoin="round"/>
<path d="M1.95133 2.2954C2.25467 2.2954 2.50057 2.0495 2.50057 1.74617C2.50057 1.44283 2.25467 1.19693 1.95133 1.19693C1.648 1.19693 1.4021 1.44283 1.4021 1.74617C1.4021 2.0495 1.648 2.2954 1.95133 2.2954Z" stroke="#98A2B3" stroke-width="1.09847" stroke-linecap="round" stroke-linejoin="round"/>
<path d="M1.95133 9.9847C2.25467 9.9847 2.50057 9.7388 2.50057 9.43546C2.50057 9.13213 2.25467 8.88623 1.95133 8.88623C1.648 8.88623 1.4021 9.13213 1.4021 9.43546C1.4021 9.7388 1.648 9.9847 1.95133 9.9847Z" stroke="#98A2B3" stroke-width="1.09847" stroke-linecap="round" stroke-linejoin="round"/>
</svg>
