<svg width="29" height="25" viewBox="0 0 29 25" fill="none" xmlns="http://www.w3.org/2000/svg">
<path d="M17.7812 7.03125V4.29688C17.7812 3.57167 17.4932 2.87617 16.9804 2.36338C16.4676 1.85059 15.7721 1.5625 15.0469 1.5625H4.10938C3.38417 1.5625 2.68867 1.85059 2.17588 2.36338C1.66309 2.87617 1.375 3.57167 1.375 4.29688V20.7031C1.375 21.4283 1.66309 22.1238 2.17588 22.6366C2.68867 23.1494 3.38417 23.4375 4.10938 23.4375H14.5C16.0101 23.4375 17.7812 22.2132 17.7812 20.7031V17.9688M22.1562 7.03125L27.625 12.5L22.1562 17.9688M9.03125 12.5H26.5312" stroke="#444343" stroke-width="2.1875" stroke-linecap="round" stroke-linejoin="round"/>
</svg>
