<svg width="23" height="23" viewBox="0 0 23 23" fill="none" xmlns="http://www.w3.org/2000/svg">
<path d="M13.9016 23H9.58911C9.30161 23 9.05244 22.9042 8.84161 22.7125C8.63078 22.5208 8.50619 22.2812 8.46786 21.9937L8.12286 19.32C7.87369 19.2242 7.63871 19.1092 7.41791 18.975C7.19711 18.8408 6.98168 18.6971 6.77161 18.5437L4.27036 19.5787C4.00203 19.6746 3.73369 19.6842 3.46536 19.6075C3.19703 19.5308 2.98619 19.3679 2.83286 19.1187L0.705359 15.41C0.552025 15.1608 0.504109 14.8925 0.561609 14.605C0.619109 14.3175 0.762859 14.0875 0.992859 13.915L3.14911 12.2762C3.12994 12.1421 3.12036 12.0125 3.12036 11.8875V11.1124C3.12036 10.9875 3.12994 10.8579 3.14911 10.7237L0.992859 9.085C0.762859 8.9125 0.619109 8.6825 0.561609 8.395C0.504109 8.1075 0.552025 7.83917 0.705359 7.59L2.83286 3.88125C2.96703 3.61292 3.17288 3.44502 3.45041 3.37755C3.72794 3.31008 4.00126 3.32465 4.27036 3.42125L6.77161 4.45625C6.98244 4.30292 7.20286 4.15917 7.43286 4.025C7.66286 3.89083 7.89286 3.77583 8.12286 3.68L8.46786 1.00625C8.50619 0.71875 8.63078 0.479167 8.84161 0.2875C9.05244 0.0958333 9.30161 0 9.58911 0H13.9016C14.1891 0 14.4383 0.0958333 14.6491 0.2875C14.8599 0.479167 14.9845 0.71875 15.0229 1.00625L15.3679 3.68C15.617 3.77583 15.852 3.89083 16.0728 4.025C16.2936 4.15917 16.509 4.30292 16.7191 4.45625L19.2204 3.42125C19.4887 3.32542 19.757 3.31583 20.0254 3.3925C20.2937 3.46917 20.5045 3.63208 20.6579 3.88125L22.7854 7.59C22.9387 7.83917 22.9866 8.1075 22.9291 8.395C22.8716 8.6825 22.7279 8.9125 22.4979 9.085L20.3416 10.7237C20.3608 10.8579 20.3704 10.9875 20.3704 11.1124V11.8875C20.3704 12.0125 20.3512 12.1421 20.3129 12.2762L22.4691 13.915C22.6991 14.0875 22.8429 14.3175 22.9004 14.605C22.9579 14.8925 22.9099 15.1608 22.7566 15.41L20.6291 19.09C20.4758 19.3392 20.26 19.5071 19.9817 19.5937C19.7034 19.6803 19.4304 19.6753 19.1629 19.5787L16.7191 18.5437C16.5083 18.6971 16.2879 18.8408 16.0579 18.975C15.8279 19.1092 15.5979 19.2242 15.3679 19.32L15.0229 21.9937C14.9845 22.2812 14.8599 22.5208 14.6491 22.7125C14.4383 22.9042 14.1891 23 13.9016 23ZM11.8029 15.525C12.9145 15.525 13.8633 15.1321 14.6491 14.3463C15.4349 13.5604 15.8279 12.6117 15.8279 11.5C15.8279 10.3883 15.4349 9.43958 14.6491 8.65375C13.8633 7.86792 12.9145 7.475 11.8029 7.475C10.672 7.475 9.71829 7.86792 8.94166 8.65375C8.16503 9.43958 7.77709 10.3883 7.77786 11.5C7.77786 12.6117 8.16579 13.5604 8.94166 14.3463C9.71753 15.1321 10.6713 15.525 11.8029 15.525ZM11.8029 13.225C11.3237 13.225 10.9162 13.0571 10.5804 12.7213C10.2446 12.3855 10.0771 11.9784 10.0779 11.5C10.0779 11.0208 10.2458 10.6134 10.5816 10.2776C10.9174 9.94175 11.3245 9.77423 11.8029 9.775C12.282 9.775 12.6895 9.9429 13.0253 10.2787C13.3611 10.6145 13.5286 11.0216 13.5279 11.5C13.5279 11.9792 13.36 12.3866 13.0242 12.7224C12.6884 13.0582 12.2813 13.2258 11.8029 13.225ZM10.5954 20.7H12.8666L13.2691 17.6525C13.8633 17.4992 14.4145 17.2738 14.9228 16.9763C15.4311 16.6788 15.8957 16.3196 16.3166 15.8987L19.1629 17.0775L20.2841 15.1225L17.8116 13.2537C17.9074 12.9854 17.9745 12.7029 18.0129 12.4062C18.0512 12.1095 18.0704 11.8074 18.0704 11.5C18.0704 11.1933 18.0512 10.8917 18.0129 10.595C17.9745 10.2983 17.9074 10.0154 17.8116 9.74625L20.2841 7.8775L19.1629 5.9225L16.3166 7.13C15.8949 6.68917 15.4303 6.3204 14.9228 6.0237C14.4153 5.727 13.864 5.5016 13.2691 5.3475L12.8954 2.3H10.6241L10.2216 5.3475C9.62744 5.50083 9.07659 5.72623 8.56906 6.0237C8.06153 6.32117 7.59654 6.68035 7.17411 7.10125L4.32786 5.9225L3.20661 7.8775L5.67911 9.7175C5.58328 10.005 5.51619 10.2925 5.47786 10.58C5.43953 10.8675 5.42036 11.1742 5.42036 11.5C5.42036 11.8067 5.43953 12.1037 5.47786 12.3912C5.51619 12.6787 5.58328 12.9662 5.67911 13.2537L3.20661 15.1225L4.32786 17.0775L7.17411 15.87C7.59578 16.3108 8.06076 16.68 8.56906 16.9775C9.07736 17.2749 9.62821 17.4999 10.2216 17.6525L10.5954 20.7Z" fill="#444343"/>
</svg>
