<svg width="27" height="27" viewBox="0 0 27 27" fill="none" xmlns="http://www.w3.org/2000/svg">
<path d="M23.7911 14.8218C23.8474 14.4 23.8755 13.964 23.8755 13.5C23.8755 13.05 23.8474 12.6 23.7771 12.1781L26.6318 9.95623C26.7548 9.85484 26.8388 9.71393 26.8696 9.55751C26.9004 9.4011 26.876 9.23885 26.8005 9.09842L24.1005 4.42968C24.021 4.28844 23.8941 4.1799 23.7423 4.12327C23.5904 4.06665 23.4234 4.0656 23.2708 4.12031L19.9099 5.4703C19.2068 4.93593 18.4615 4.48593 17.6318 4.14843L17.1255 0.576565C17.1006 0.415592 17.0188 0.268888 16.895 0.163095C16.7711 0.0573018 16.6134 -0.000564615 16.4505 4.15321e-06H11.0506C10.7131 4.15321e-06 10.4459 0.239066 10.3896 0.576565L9.88337 4.14843C9.05368 4.48593 8.29431 4.94999 7.60525 5.4703L4.24432 4.12031C3.93494 4.00781 3.58338 4.12031 3.41463 4.42968L0.7287 9.09842C0.55995 9.39373 0.6162 9.75936 0.897449 9.95623L3.75213 12.1781C3.68182 12.6 3.62557 13.064 3.62557 13.5C3.62557 13.9359 3.65369 14.4 3.72401 14.8218L0.869324 17.0437C0.746312 17.1451 0.66226 17.286 0.63149 17.4424C0.600719 17.5988 0.625134 17.7611 0.700575 17.9015L3.40057 22.5703C3.56932 22.8796 3.92088 22.9781 4.23025 22.8796L7.59118 21.5296C8.29431 22.064 9.03962 22.514 9.8693 22.8515L10.3756 26.4234C10.4459 26.7609 10.7131 26.9999 11.0506 26.9999H16.4505C16.788 26.9999 17.0693 26.7609 17.1115 26.4234L17.6177 22.8515C18.4474 22.514 19.2068 22.064 19.8958 21.5296L23.2568 22.8796C23.5661 22.9921 23.9177 22.8796 24.0865 22.5703L26.7865 17.9015C26.9552 17.5922 26.8849 17.2406 26.6177 17.0437L23.7911 14.8218ZM13.7505 18.5625C10.9662 18.5625 8.68806 16.2843 8.68806 13.5C8.68806 10.7156 10.9662 8.43748 13.7505 8.43748C16.5349 8.43748 18.813 10.7156 18.813 13.5C18.813 16.2843 16.5349 18.5625 13.7505 18.5625Z" fill="#444343"/>
</svg>
