<svg width="8" height="9" viewBox="0 0 8 9" fill="none" xmlns="http://www.w3.org/2000/svg">
<path d="M7.18361 8.01757H1.36244C1.25952 8.01757 1.16081 7.977 1.08803 7.90479C1.01525 7.83258 0.974365 7.73464 0.974365 7.63253V7.38456C0.974365 6.9641 0.974365 6.63143 0.996874 6.35805C1.00843 6.09645 1.07283 5.83981 1.18626 5.60337C1.37133 5.24068 1.66826 4.94607 2.03382 4.76245C2.27211 4.64987 2.53078 4.58597 2.79445 4.57455C3.06998 4.55222 3.40528 4.55222 3.82906 4.55222H4.71621C5.14077 4.55222 5.47607 4.55222 5.75083 4.57455C6.01475 4.58593 6.27368 4.64983 6.51223 4.76245C6.87779 4.94633 7.1749 5.24085 7.36057 5.60337C7.47345 5.83997 7.53757 6.09654 7.54918 6.35805C7.57169 6.63143 7.57169 6.96333 7.57169 7.38456V7.63253C7.57169 7.73464 7.5308 7.83258 7.45802 7.90479C7.38524 7.977 7.28653 8.01757 7.18361 8.01757ZM6.67523 5.96608C6.73602 6.11054 6.76994 6.26474 6.77535 6.4212C6.76995 6.26474 6.73603 6.11054 6.67523 5.96608ZM2.37144 5.45783C2.16063 5.56907 1.98938 5.74193 1.88091 5.95299C1.98938 5.74193 2.16063 5.56907 2.37144 5.45783ZM3.84614 5.32229C3.38743 5.32229 3.09405 5.32229 2.85809 5.34232C3.09405 5.32229 3.38743 5.32229 3.84614 5.32229ZM4.27303 3.78214C3.92763 3.78214 3.58999 3.68052 3.30281 3.49013C3.01562 3.29974 2.79179 3.02914 2.65961 2.71253C2.52743 2.39593 2.49285 2.04754 2.56023 1.71144C2.62761 1.37533 2.79394 1.0666 3.03817 0.824281C3.2824 0.581962 3.59357 0.416941 3.93233 0.350085C4.27109 0.28323 4.62222 0.317542 4.94132 0.448684C5.26043 0.579826 5.53317 0.801907 5.72506 1.08684C5.91695 1.37178 6.01938 1.70678 6.01938 2.04947C6.01876 2.50881 5.83457 2.94917 5.5072 3.27398C5.17983 3.59878 4.736 3.78153 4.27303 3.78214ZM4.27303 1.08687C4.01638 1.08727 3.77031 1.1884 3.58854 1.36817C3.40677 1.54793 3.30406 1.79175 3.30283 2.04639C3.30406 1.79175 3.40677 1.54793 3.58854 1.36817C3.77031 1.1884 4.01638 1.08727 4.27303 1.08687ZM4.27303 1.08687C4.49624 1.0875 4.71234 1.16477 4.88464 1.30557C4.71339 1.16505 4.49835 1.08776 4.27613 1.08687H4.27303Z" fill="white"/>
</svg>
