<svg width="14" height="16" viewBox="0 0 14 16" fill="none" xmlns="http://www.w3.org/2000/svg">
<path d="M12.8124 15.8757H1.02508C0.816666 15.8757 0.616789 15.7935 0.469419 15.6473C0.322049 15.5011 0.239258 15.3028 0.239258 15.096V14.5939C0.239258 13.7425 0.239258 13.0689 0.284835 12.5153C0.308236 11.9856 0.438642 11.4659 0.668316 10.9872C1.04306 10.2527 1.64433 9.65619 2.38455 9.28438C2.86706 9.05642 3.39084 8.92703 3.92475 8.9039C4.48269 8.85868 5.16164 8.85868 6.01975 8.85868H7.81614C8.67582 8.85868 9.35477 8.85868 9.91113 8.9039C10.4456 8.92695 10.9699 9.05634 11.4529 9.28438C12.1931 9.65672 12.7948 10.2531 13.1707 10.9872C13.3993 11.4662 13.5291 11.9858 13.5526 12.5153C13.5982 13.0689 13.5982 13.741 13.5982 14.5939V15.096C13.5982 15.3028 13.5154 15.5011 13.368 15.6473C13.2207 15.7935 13.0208 15.8757 12.8124 15.8757ZM11.783 11.7216C11.906 12.0141 11.9747 12.3264 11.9857 12.6432C11.9748 12.3264 11.9061 12.0141 11.783 11.7216ZM3.06821 10.6925C2.64132 10.9177 2.29456 11.2677 2.07493 11.6951C2.29456 11.2677 2.64132 10.9177 3.06821 10.6925ZM6.05433 10.418C5.12549 10.418 4.53141 10.418 4.05363 10.4586C4.53141 10.418 5.12549 10.418 6.05433 10.418ZM6.91873 7.29935C6.21934 7.29935 5.53565 7.09358 4.95413 6.70806C4.3726 6.32254 3.91936 5.77459 3.65172 5.13349C3.38407 4.4924 3.31404 3.78696 3.45049 3.10637C3.58693 2.42579 3.92372 1.80064 4.41826 1.30997C4.91281 0.819293 5.5429 0.485141 6.22885 0.349765C6.91481 0.214389 7.62582 0.283869 8.27197 0.549419C8.91813 0.814969 9.4704 1.26466 9.85896 1.84163C10.2475 2.4186 10.4549 3.09693 10.4549 3.79085C10.4537 4.72098 10.0807 5.61266 9.41782 6.27037C8.75492 6.92807 7.8562 7.29811 6.91873 7.29935ZM6.91873 1.84168C6.39904 1.8425 5.90078 2.04727 5.53271 2.41128C5.16465 2.7753 4.95667 3.269 4.95418 3.78461C4.95667 3.269 5.16465 2.7753 5.53271 2.41128C5.90078 2.04727 6.39904 1.8425 6.91873 1.84168ZM6.91873 1.84168C7.37071 1.84295 7.80831 1.99943 8.15718 2.28453C7.81043 1.99999 7.37499 1.84349 6.92502 1.84168H6.91873Z" fill="white"/>
</svg>
