<svg width="107" height="98" viewBox="0 0 107 98" fill="none" xmlns="http://www.w3.org/2000/svg">
<path d="M33.233 0.851318V97.39H50.7447V0.851318H33.233ZM0.903809 11.6277V54.2843H11.2312V11.6277H0.903809ZM36.3761 16.7914H40.4173V88.6341H36.3761V16.7914ZM65.276 18.5179L55.1112 20.3418L68.9914 97.6843L79.1562 95.8604L65.276 18.5179ZM15.2724 22.4041V83.0214H29.1919V22.4041H15.2724ZM78.4719 28.843L72.2768 31.4862L73.5103 34.3772L79.7054 31.734L78.4719 28.843ZM81.2918 35.451L75.096 38.0939L76.3295 40.9849L82.5243 38.342L81.2913 35.451H81.2918ZM84.1105 42.0592L77.9154 44.7016L100.293 97.1531L106.488 94.51L84.1107 42.0592H84.1105ZM0.903809 58.3255V65.0607H11.2312V58.3255H0.903809ZM43.5604 59.897H47.6016V88.6341H43.5604V59.897ZM0.903809 69.1019V97.39H11.2312V69.1019H0.903809ZM15.2724 87.0626V97.39H29.1919V87.0626H15.2724Z" fill="#911DED"/>
</svg>
