<svg width="92" height="92" viewBox="0 0 92 92" fill="none" xmlns="http://www.w3.org/2000/svg">
<path d="M43.389 57.1773L75.1623 36.7516L43.389 16.3259V57.1773ZM27.5023 73.0639C25.0059 73.0639 22.868 72.1743 21.0887 70.395C19.3094 68.6157 18.4212 66.4793 18.4243 63.9859V9.51731C18.4243 7.02083 19.3139 4.88294 21.0932 3.10364C22.8725 1.32433 25.0089 0.436191 27.5023 0.439217H81.9709C84.4674 0.439217 86.6053 1.32887 88.3846 3.10818C90.1639 4.88748 91.052 7.02386 91.049 9.51731V63.9859C91.049 66.4823 90.1593 68.6202 88.38 70.3995C86.6007 72.1788 84.4643 73.067 81.9709 73.0639H27.5023ZM27.5023 63.9859H81.9709V9.51731H27.5023V63.9859ZM9.34616 91.2201C6.84969 91.2201 4.7118 90.3305 2.93249 88.5512C1.15319 86.7719 0.265048 84.6355 0.268074 82.142V18.5954H9.34616V82.142H72.8928V91.2201H9.34616Z" fill="#911DED"/>
</svg>
